SplineFontDB: 3.0
FontName: Epigraf
FullName: font4527
FamilyName: SVGFont 2
Weight: Regular
Copyright: 
Version: 1.0
ItalicAngle: 0
UnderlinePosition: 0
UnderlineWidth: 0
Ascent: 819
Descent: 205
InvalidEm: 0
sfntRevision: 0x00010000
woffMajor: 1
woffMinor: 0
LayerCount: 2
Layer: 0 0 "Back" 1
Layer: 1 0 "Fore" 0
HasVMetrics: 1
XUID: [1021 437 -521488251 12815108]
StyleMap: 0x0000
FSType: 8
OS2Version: 3
OS2_WeightWidthSlopeOnly: 0
OS2_UseTypoMetrics: 0
CreationTime: 1455662059
ModificationTime: 1460464976
PfmFamily: 17
TTFWeight: 400
TTFWidth: 5
LineGap: 92
VLineGap: 92
Panose: 2 0 5 9 0 0 0 0 0 0
OS2TypoAscent: 819
OS2TypoAOffset: 0
OS2TypoDescent: -205
OS2TypoDOffset: 0
OS2TypoLinegap: 92
OS2WinAscent: 1024
OS2WinAOffset: 0
OS2WinDescent: 84
OS2WinDOffset: 0
HheadAscent: 1024
HheadAOffset: 0
HheadDescent: -84
HheadDOffset: 0
OS2SubXSize: 665
OS2SubYSize: 716
OS2SubXOff: 0
OS2SubYOff: 143
OS2SupXSize: 665
OS2SupYSize: 716
OS2SupXOff: 0
OS2SupYOff: 490
OS2StrikeYSize: 51
OS2StrikeYPos: 265
OS2Vendor: 'PfEd'
OS2CodePages: 00000001.00000000
OS2UnicodeRanges: 00000001.00000000.00000000.00000000
MarkAttachClasses: 1
DEI: 91125
LangName: 1033 "" "" "" "FontForge 2.0 : font4527 : 17-2-2016" "" "Version 1.0"
Encoding: UnicodeBmp
UnicodeInterp: none
NameList: AGL For New Fonts
DisplaySize: -128
AntiAlias: 0
FitToEm: 0
WinInfo: 36 9 5
BeginPrivate: 7
BlueValues 15 [-10 0 951 966]
BlueScale 9 0.0319355
BlueShift 1 0
StdHW 3 [9]
StdVW 3 [9]
StemSnapH 6 [9 12]
StemSnapV 6 [9 12]
EndPrivate
Grid
-1024 1024 m 0
 2048 1024 l 1024
  Named: "up"
-1024 -82 m 0
 2048 -82 l 1024
  Named: "bottom"
EndSplineSet
BeginChars: 65537 26

StartChar: .notdef
Encoding: 65536 -1 0
Width: 1024
Flags: HMW
HStem: 0 51<102 922 102 973> 495 51<102 922 102 102>
VStem: 51 51<51 51 51 495> 922 51<51 495 495 495>
LayerCount: 2
Fore
SplineSet
51 0 m 1
 51 546 l 1
 973 546 l 1
 973 0 l 1
 51 0 l 1
102 51 m 1
 922 51 l 1
 922 495 l 1
 102 495 l 1
 102 51 l 1
EndSplineSet
Validated: 1
EndChar

StartChar: uni0000
Encoding: 0 -1 1
AltUni2: 000000.ffffffff.0
Width: 1024
VWidth: 89
GlyphClass: 2
Flags: W
HStem: 0 1024<0 1000>
VStem: 0 1000<0 1024>
LayerCount: 2
Fore
SplineSet
0 0 m 1
 0 1024 l 1
 1000 1024 l 1
 1000 0 l 1
 0 0 l 1
EndSplineSet
Validated: 1
EndChar

StartChar: zero
Encoding: 48 48 2
Width: 1020
VWidth: 0
GlyphClass: 2
Flags: HMW
HStem: -574337 7844.55 -30487.4 8222.13 102797 8749.44
VStem: 290.721 0.6 349.921 0.6 363.521 0.4
LayerCount: 2
Fore
SplineSet
490.12890625 1017.48144531 m 0
 528.943359375 1017.47949219 567.208007812 1009.95019531 604.01171875 997.452148438 c 0
 651.450195312 978.936523438 695.9609375 951.682617188 731.869140625 915.444335938 c 0
 779.366210938 869.969726562 818.413085938 814.909179688 844.3828125 754.352539062 c 0
 876.127929688 685.274414062 893.514648438 610.73828125 901.563476562 535.423828125 c 0
 904.873046875 487.235351562 906.088867188 438.2578125 899.1953125 390.309570312 c 0
 888.708007812 297.901367188 860.638671875 206.55078125 812.09765625 127.014648438 c 0
 792.022460938 93.2626953125 766.958984375 63.3125 740.107421875 34.7763671875 c 0
 696.612304688 -5.9892578125 647.078125 -43.1484375 588.87109375 -59.541015625 c 0
 506.752929688 -87.0634765625 414.287109375 -76.21484375 338.677734375 -34.8994140625 c 0
 276.560546875 -0.6435546875 224.151367188 50.109375 184.731445312 108.888671875 c 0
 157.133789062 154.354492188 131.233398438 201.620117188 116.16796875 252.873046875 c 0
 108.25 275.8359375 101.734375 299.580078125 97.0673828125 323.400390625 c 0
 87.6376953125 364.53125 83.9169921875 406.516601562 81.740234375 448.6328125 c 0
 79.712890625 495.33203125 84.0126953125 542.428710938 91.1142578125 588.5625 c 0
 96.7197265625 621.04296875 104.202148438 653.087890625 114.206054688 684.44921875 c 0
 128.896484375 734.465820312 153.403320312 780.619140625 178.72265625 825.978515625 c 0
 203.233398438 860.327148438 228.65234375 894.35546875 260.606445312 922.137695312 c 0
 318.342773438 976.209960938 394.448242188 1010.63964844 473.461914062 1017.01269531 c 0
 479.02734375 1017.328125 484.583984375 1017.48144531 490.12890625 1017.48144531 c 0
488.443359375 1011.16992188 m 2
 488.443359375 1011.16992188 l 2
 483.602539062 1011.14550781 478.7578125 1011.00585938 473.912109375 1010.75195312 c 0
 396.189453125 1004.56152344 321.17578125 970.25 264.444335938 917.084960938 c 0
 236.4921875 892.87109375 214.061523438 863.568359375 192.040039062 834.002929688 c 0
 166.452148438 792.8125 142.3984375 749.498046875 127.658203125 703.072265625 c 0
 113.205078125 665.490234375 104.422851562 626.203125 97.1240234375 586.67578125 c 0
 89.6171875 534.805664062 84.423828125 481.864257812 89.419921875 429.477539062 c 0
 90.04296875 392.024414062 97.58984375 355.521484375 104.077148438 318.850585938 c 0
 116.9375 269.586914062 130.35546875 219.641601562 155.125 174.666015625 c 0
 183.415039062 114.76171875 223.556640625 60.4287109375 274.0078125 17.43359375 c 0
 324.2421875 -25.5458984375 385.166015625 -56.6513671875 451.139648438 -65.5693359375 c 0
 529.100585938 -76.40234375 611.413085938 -55.845703125 675.333984375 -10.044921875 c 0
 716.775390625 17.642578125 751.712890625 53.69140625 781.924804688 93.0439453125 c 0
 815.150390625 138.602539062 840.538085938 189.092773438 859.46875 242.171875 c 0
 882.412109375 309.497070312 895.626953125 380.499023438 897.486328125 451.583007812 c 0
 899.685546875 500.758789062 894.55859375 549.58203125 886.337890625 598.012695312 c 0
 868.161132812 693.315429688 832.481445312 787.536132812 770.982421875 863.515625 c 0
 747.213867188 892.674804688 720.923828125 920.143554688 690.788085938 942.662109375 c 0
 632.876953125 986.319335938 561.067382812 1011.546875 488.443359375 1011.16992188 c 2
494.915039062 914.418945312 m 2
 494.915039062 914.41796875 l 2
 496.716796875 914.411132812 498.518554688 914.3828125 500.322265625 914.334960938 c 0
 512.008789062 912.796875 523.908203125 912.228515625 535.501953125 910.147460938 c 0
 615.513671875 897.6953125 684.146484375 838.485351562 714.655273438 764.465820312 c 0
 728.65625 724.849609375 734.479492188 682.591796875 740.518554688 641.166015625 c 0
 748.89453125 568.4765625 754.1640625 495.39453125 750.838867188 422.200195312 c 0
 746.350585938 359.38671875 742.796875 296.084960938 729.108398438 234.456054688 c 0
 723.185546875 187.766601562 701.83203125 143.896484375 671.005859375 108.649414062 c 0
 635.040039062 65.7646484375 582.075195312 40.2333984375 527.506835938 31.1123046875 c 0
 478.521484375 22.0576171875 428.494140625 34.044921875 384.046875 54.841796875 c 0
 322.4375 85.1337890625 279.599609375 145.029296875 260.861328125 210.045898438 c 0
 237.958007812 313.134765625 232.369140625 419.421875 235.736328125 524.779296875 c 0
 237.762695312 595.616210938 246.192382812 666.506835938 261.502929688 735.614257812 c 0
 275.639648438 783.225585938 302.90625 827.176757812 340.8671875 859.329101562 c 0
 383.868164062 895.145507812 439.064453125 914.653320312 494.915039062 914.418945312 c 2
490.323242188 908.124023438 m 2
 490.323242188 908.123046875 l 2
 488.415039062 908.127929688 486.50390625 908.110351562 484.59375 908.072265625 c 0
 412.255859375 905.139648438 341.469726562 867.450195312 302.180664062 806.185546875 c 0
 260.624023438 750.782226562 257.564453125 679.327148438 247.8359375 613.33984375 c 0
 236.4453125 491.299804688 238.686523438 367.544921875 259.568359375 246.609375 c 0
 271.548828125 164.51171875 323.021484375 84.4189453125 402.360351562 53.8623046875 c 0
 451.086914062 32.921875 507.203125 27.619140625 557.864257812 44.91015625 c 0
 625.787109375 61.91796875 680.188476562 114.7578125 707.55078125 178.084960938 c 0
 722.104492188 215.770507812 726.891601562 256.787109375 733.74609375 296.454101562 c 0
 741.528320312 367.650390625 747.48828125 439.06640625 745.051757812 510.752929688 c 0
 741.260742188 575.11328125 736.891601562 639.84765625 723.797851562 703.079101562 c 0
 717.416992188 757.224609375 691.086914062 807.911132812 651.533203125 845.075195312 c 0
 608.73828125 886.750976562 549.55078125 907.963867188 490.323242188 908.124023438 c 2
810.974609375 495.153320312 m 0
 824.079101562 495.400390625 833.487304688 486.407226562 836.26953125 473.267578125 c 0
 837.51953125 453.811523438 813.775390625 439.512695312 797.912109375 451.764648438 c 0
 779.650390625 462.352539062 786.830078125 491.383789062 806.791992188 494.775390625 c 0
 808.223632812 495.00390625 809.618164062 495.129882812 810.974609375 495.153320312 c 0
173.888671875 495.112304688 m 0
 184.883789062 494.958984375 195.096679688 488.315429688 196.916992188 476.580078125 c 0
 202.951171875 456.061523438 177.33984375 438.73828125 160.596679688 451.556640625 c 0
 142.012695312 461.889648438 149.016601562 491.388671875 169.150390625 494.776367188 c 0
 170.73046875 495.0234375 172.317382812 495.1328125 173.888671875 495.112304688 c 0
174.862304688 489.234375 m 0
 173.299804688 489.225585938 171.637695312 488.982421875 169.884765625 488.470703125 c 0
 147.125976562 482.040039062 155.224609375 450.545898438 177.456054688 453.970703125 c 0
 197.829101562 456.903320312 193.284179688 489.333007812 174.862304688 489.234375 c 0
812.284179688 489.161132812 m 1
 812.282226562 489.162109375 l 2
 810.778320312 489.157226562 809.1875 488.9375 807.525390625 488.47265625 c 2
 807.07421875 488.249023438 l 1
 804.622070312 487.040039062 l 2
 783.334960938 479.588867188 797.278320312 447.133789062 817.130859375 454.6640625 c 0
 836.30859375 459.588867188 830.052734375 489.225585938 812.284179688 489.161132812 c 1
 812.284179688 489.161132812 l 1
EndSplineSet
Validated: 524325
EndChar

StartChar: one
Encoding: 49 49 3
Width: 658
VWidth: 89
GlyphClass: 2
Flags: HMW
HStem: -165.502 11.4704 -81.7676 11.4704 -68.0031 11.4704G 560.575 11.4704 965.481 11.4704
VStem: 111.326 11.4704 332.705 11.4704 500.173 11.4704
LayerCount: 2
Fore
SplineSet
327.603515625 832.82421875 m 4
 305.134765625 831.897460938 303.828125 868.931640625 325.991210938 868.983398438 c 4
 346.8984375 867.60546875 351.20703125 835.505859375 327.603515625 832.82421875 c 4
326.295898438 875.221679688 m 6
 326.189453125 875.228515625 l 5
 326.083007812 875.228515625 l 4
 295.221679688 875.157226562 297.053710938 825.314453125 327.973632812 826.590820312 c 4
 328.084960938 826.594726562 l 5
 328.196289062 826.607421875 l 4
 359.59765625 830.173828125 354.618164062 873.352539062 326.295898438 875.221679688 c 6
408.712890625 27.9423828125 m 4
 404.530273438 91.580078125 408.134765625 157.299804688 406.930664062 222.01171875 c 5
 406.930664062 990.7421875 l 5
 406.887695312 990.99609375 l 4
 404.4765625 1005.58886719 391.051757812 1011.54589844 379.9453125 1014.62207031 c 4
 379.450195312 1014.75976562 l 5
 378.9375 1014.73144531 l 6
 341.90234375 1012.65722656 302.793945312 1019.17578125 265.44140625 1011.1796875 c 4
 265.172851562 1011.12109375 l 5
 264.918945312 1011.01855469 l 4
 239.079101562 1000.51269531 246.719726562 966.796875 236.163085938 950.83203125 c 4
 235.944335938 950.498046875 l 5
 235.813476562 950.120117188 l 4
 205.033203125 860.161132812 139.7265625 782.454101562 56.1279296875 737.055664062 c 4
 55.89453125 736.928710938 l 5
 55.685546875 736.763671875 l 4
 28.7734375 715.538085938 44.1728515625 675.665039062 40.3984375 649.952148438 c 4
 40.3369140625 649.541992188 l 5
 40.3857421875 649.1328125 l 4
 43.7978515625 620.125976562 73.7216796875 617.180664062 94.9638671875 619.891601562 c 4
 119.2109375 620.709960938 150.099609375 613.26171875 167.248046875 639.98046875 c 5
 246.984375 719.717773438 l 5
 246.984375 27.8466796875 l 6
 243.985351562 2.861328125 216.1796875 13.1298828125 195.157226562 7.5087890625 c 4
 194.9140625 7.4443359375 l 5
 194.684570312 7.3408203125 l 4
 158.456054688 -8.9208984375 163.322265625 -67.2998046875 201.749023438 -76.125 c 4
 202.094726562 -76.2041015625 l 5
 457.481445312 -76.2041015625 l 5
 458.063476562 -75.9580078125 l 4
 494.2109375 -60.6982421875 492.529296875 -0.4951171875 454.106445312 9.47265625 c 4
 453.614257812 9.599609375 l 5
 453.106445312 9.5654296875 l 4
 434.173828125 8.259765625 411.127929688 7.3544921875 408.712890625 27.9423828125 c 4
378.791015625 1008.46875 m 4
 388.658203125 1005.52539062 398.966796875 1000.62207031 400.727539062 989.977539062 c 5
 399.018554688 1010.79101562 400.685546875 1011.36914062 400.685546875 990.486328125 c 4
 400.685546875 221.952148438 l 5
 401.887695312 157.4140625 398.267578125 91.6396484375 402.486328125 27.4541015625 c 4
 402.493164062 27.3740234375 l 5
 402.500976562 27.2958984375 l 4
 405.666015625 0.328125 435.102539062 2.080078125 453.021484375 3.2998046875 c 5
 483.287109375 -5.3505859375 487.322265625 -55.939453125 456.204101562 -69.9599609375 c 5
 202.796875 -69.9599609375 l 5
 172.161132812 -62.1533203125 165.370117188 -13.55078125 197.015625 1.546875 c 5
 211.841796875 5.0400390625 249.48046875 -3.7646484375 253.206054688 27.2880859375 c 4
 253.228515625 27.4716796875 l 5
 253.228515625 734.79296875 l 5
 162.23828125 643.802734375 l 5
 162.0390625 643.46875 l 4
 148.146484375 620.150390625 120.625976562 627.005859375 94.6083984375 626.127929688 c 4
 94.462890625 626.122070312 l 5
 94.3173828125 626.104492188 l 4
 73.3896484375 623.43359375 50.158203125 626.203125 46.634765625 649.422851562 c 5
 50.3486328125 678.181640625 37.2412109375 714.321289062 59.1083984375 731.567382812 c 5
 143.982421875 777.659179688 209.7578125 855.508789062 241.583007812 947.690429688 c 5
 254.173828125 968.2578125 246.95703125 997.02734375 266.747070312 1005.07324219 c 5
 302.615234375 1012.75097656 339.672851562 1006.45507812 378.791015625 1008.46875 c 4
353.201171875 85.5986328125 m 4
 347.544921875 116.250976562 299.006835938 106.201171875 306.516601562 75.154296875 c 5
 302.649414062 95.67578125 303.642578125 96.1572265625 306.458984375 75.466796875 c 4
 310.735351562 44.03515625 363.372070312 56.2626953125 353.201171875 85.5986328125 c 4
347.224609375 83.77734375 m 6
 354.495117188 62.806640625 315.647460938 54.2470703125 312.646484375 76.3095703125 c 4
 312.623046875 76.4677734375 l 5
 312.586914062 76.6220703125 l 4
 307.083984375 99.3701171875 343.013671875 106.403320312 347.104492188 84.232421875 c 4
 347.147460938 84 l 5
 347.224609375 83.77734375 l 6
EndSplineSet
EndChar

StartChar: two
Encoding: 50 50 4
Width: 1017
VWidth: 89
GlyphClass: 2
Flags: HMWO
HStem: -74 10 40 10 77 10 802 10 808 12
VStem: 700 12
LayerCount: 2
Fore
SplineSet
670.715820312 840.143554688 m 4xe4
 658.403320312 812.607421875 709.421875 788.780273438 715.043945312 826.959960938 c 5
 719.776367188 852.7578125 680.7890625 863.706054688 670.715820312 840.143554688 c 4xe4
676.409179688 837.653320312 m 4
 683.586914062 854.4453125 712.301757812 846.44921875 708.913085938 827.971679688 c 5
 704.55859375 798.409179688 668.200195312 819.297851562 676.409179688 837.653320312 c 4
427.217773438 1.0732421875 m 4
 431.989257812 -31.1064453125 489.956054688 -18.84765625 468.650390625 17.642578125 c 4
 468.470703125 17.94921875 l 5
 468.227539062 18.208984375 l 4
 453.82421875 33.4638671875 424.702148438 23.5859375 427.217773438 1.0732421875 c 4
433.379882812 1.8740234375 m 4
 431.588867188 17.900390625 452.767578125 24.5732421875 463.471679688 14.1962890625 c 5
 479.40625 -14.80859375 436.526367188 -19.337890625 433.379882812 1.8740234375 c 4
769.889648438 129.572265625 m 4
 766.12890625 111.302734375 759.358398438 102.7265625 746.78125 100.829101562 c 5
 746.78125 100.829101562 307.359375 100.802734375 268.00390625 100.802734375 c 5
 299.985351562 148.788085938 337.963867188 189.1875 380.506835938 226.075195312 c 5
 418.580078125 256.9140625 456.64453125 288.005859375 500.401367188 309.8828125 c 4
 500.522460938 309.944335938 l 5
 500.638671875 310.015625 l 4
 552.96875 342.202148438 613.426757812 358.34765625 668.893554688 386.15234375 c 4
 668.9609375 386.184570312 l 5
 669.029296875 386.22265625 l 4
 751.325195312 432.565429688 819.736328125 505.6328125 852.618164062 595.114257812 c 5
 869.961914062 640.809570312 884.377929688 690.987304688 870.939453125 740.716796875 c 4
 857.225585938 815.296875 817.954101562 886.267578125 758.3046875 933.891601562 c 5
 699.7265625 984.967773438 621.094726562 1010.71582031 543.891601562 1008.83886719 c 5
 480.041015625 1006.21289062 415.944335938 990.037109375 361.580078125 955.353515625 c 5
 314.668945312 926.95703125 273.572265625 888.602539062 242.897460938 842.826171875 c 5
 207.900390625 792.0234375 188.99609375 731.120117188 182.61328125 670.469726562 c 4
 182.568359375 670.049804688 l 5
 182.63671875 669.634765625 l 4
 188.787109375 632.7578125 213.334960938 596.971679688 250.22265625 585.3203125 c 4
 297.918945312 565.66796875 357.852539062 588.591796875 380.217773438 635.265625 c 5
 393.69921875 660.999023438 396.040039062 694.560546875 384.618164062 721.647460938 c 4
 378.311523438 739.266601562 366.317382812 753.354492188 353.135742188 765.594726562 c 4
 352.840820312 765.868164062 l 5
 352.485351562 766.05859375 l 4
 336.282226562 774.708007812 317.66015625 786.84375 299.108398438 787.817382812 c 5
 313.89453125 813.5 331.25 834.999023438 354.64453125 851.9765625 c 4
 354.721679688 852.033203125 l 5
 354.794921875 852.09375 l 4
 425.903320312 910.692382812 537.729492188 908.587890625 607.977539062 849.388671875 c 4
 608.060546875 849.318359375 l 5
 608.147460938 849.255859375 l 4
 651.536132812 817.581054688 677.341796875 766.427734375 685.583984375 713.703125 c 4
 690.8359375 652.596679688 674.958984375 590.086914062 638.615234375 540.38671875 c 4
 619.403320312 514.08203125 594.470703125 491.9375 566.818359375 474.3515625 c 5
 532.805664062 450.966796875 490.403320312 446.522460938 452.803710938 426.494140625 c 4
 405.286132812 409.177734375 363.590820312 379.717773438 323.428710938 350.1875 c 4
 323.35546875 350.131835938 l 5
 323.283203125 350.07421875 l 4
 281.114257812 315.006835938 239.904296875 277.1015625 209.805664062 230.407226562 c 4
 152.29296875 152.609375 121.224609375 58.2060546875 107.985351562 -36.7001953125 c 5
 106.682617188 -50.19140625 98.3798828125 -78.021484375 126.51953125 -69.7822265625 c 5
 754.514648438 -69.7822265625 l 5
 754.938476562 -69.6572265625 l 4
 779.787109375 -62.4287109375 779.685546875 -31.265625 788.90625 -15.55078125 c 4
 789.03125 -15.3369140625 l 5
 789.12109375 -15.1064453125 l 4
 809.6171875 37.5078125 832.045898438 90.060546875 851.454101562 142.940429688 c 4
 851.591796875 143.318359375 l 5
 851.629882812 143.719726562 l 4
 854.267578125 171.950195312 817.250976562 188.95703125 795.521484375 173.868164062 c 5
 795.521484375 173.868164062 770.58984375 141.241210938 769.889648438 129.572265625 c 4
259.645507812 99.3837890625 m 6
 256.538085938 94.5888671875 l 5
 747.296875 94.5888671875 l 5
 764.138671875 97.693359375 771.977539062 108.904296875 776.01953125 128.538085938 c 4
 776.064453125 128.754882812 l 5
 776.078125 128.977539062 l 4
 777.10546875 146.103515625 782.470703125 162.176757812 798.42578125 168.422851562 c 4
 798.766601562 168.557617188 l 5
 799.06640625 168.765625 l 4
 816.774414062 181.061523438 846.78515625 167.024414062 845.481445312 144.701171875 c 5
 826.395507812 92.8056640625 803.811523438 39.7177734375 783.33203125 -12.8505859375 c 5
 792.345703125 5.763671875 794.01171875 5.4326171875 783.546875 -12.40625 c 4
 772.239257812 -31.681640625 773.981445312 -56.765625 753.638671875 -63.568359375 c 5
 125.532226562 -63.568359375 l 5
 125.069335938 -63.716796875 l 4
 105.524414062 -69.9814453125 112.413085938 -55.474609375 114.157226562 -37.4287109375 c 5
 127.255859375 56.4755859375 158.174804688 150.115234375 214.860351562 226.791992188 c 4
 214.920898438 226.872070312 l 5
 214.974609375 226.956054688 l 4
 244.500976562 272.765625 285.240234375 310.357421875 327.255859375 345.296875 c 5
 310.96484375 332.552734375 310.447265625 332.930664062 327.109375 345.182617188 c 4
 367.21484375 374.670898438 408.651367188 403.791992188 455.134765625 420.73046875 c 4
 455.33984375 420.806640625 l 5
 455.532226562 420.908203125 l 4
 491.572265625 440.104492188 534.818359375 444.807617188 570.247070312 469.16796875 c 5
 598.302734375 487.012695312 623.904296875 509.70703125 643.633789062 536.723632812 c 4
 680.931640625 587.73046875 697.138671875 651.834960938 691.764648438 714.340820312 c 4
 691.756835938 714.44921875 l 5
 691.740234375 714.5546875 l 4
 683.298828125 768.5546875 656.84765625 821.395507812 611.809570312 854.2734375 c 5
 628.081054688 841.50390625 627.797851562 840.8125 611.982421875 854.139648438 c 4
 539.432617188 915.280273438 424.392578125 917.499023438 350.844726562 856.887695312 c 5
 367.202148438 869.544921875 367.733398438 869.155273438 350.995117188 857.005859375 c 4
 325.334960938 838.385742188 306.119140625 813.588867188 291.079101562 786.204101562 c 4
 288.385742188 781.30078125 l 5
 293.970703125 781.60546875 l 4
 313.678710938 782.6796875 330.090820312 771.080078125 349.209960938 760.762695312 c 5
 361.357421875 749.340820312 373.030273438 735.583007812 378.796875 719.471679688 c 4
 378.827148438 719.390625 l 5
 378.861328125 719.310546875 l 4
 389.495117188 694.0859375 387.3984375 662.365234375 374.663085938 638.049804688 c 5
 353.68359375 594.274414062 297.03515625 572.75390625 252.46875 591.116210938 c 4
 252.346679688 591.1640625 l 5
 252.220703125 591.205078125 l 4
 218.37890625 601.89453125 195.18359375 634.35546875 188.834960938 670.237304688 c 5
 195.2109375 729.352539062 213.731445312 789.534179688 248.037109375 839.333984375 c 5
 278.2421875 884.408203125 318.540039062 922.036132812 364.861328125 950.075195312 c 5
 418.194335938 984.102539062 481.180664062 1000.04199219 544.094726562 1002.62792969 c 5
 619.7890625 1004.46875 696.844726562 979.237304688 754.321289062 929.120117188 c 5
 812.869140625 882.377929688 851.377929688 812.73828125 864.8515625 739.46875 c 4
 864.874023438 739.341796875 l 5
 864.907226562 739.21875 l 4
 877.766601562 691.63671875 864.073242188 642.806640625 846.797851562 597.287109375 c 5
 814.481445312 509.349609375 747.1640625 437.35546875 665.978515625 391.63671875 c 5
 684.240234375 401.348632812 684.600585938 400.975585938 666.110351562 391.70703125 c 4
 611.41796875 364.291015625 550.728515625 348.118164062 497.384765625 315.307617188 c 5
 515.459960938 325.360351562 516.122070312 324.69140625 497.623046875 315.44140625 c 4
 452.9921875 293.126953125 414.75 261.806640625 376.515625 230.838867188 c 5
 332.1953125 192.408203125 291.604492188 148.729492188 259.645507812 99.3837890625 c 6
EndSplineSet
EndChar

StartChar: three
Encoding: 51 51 5
Width: 1024
VWidth: 0
GlyphClass: 2
Flags: HMW
HStem: -68 6<566 566> 791 6<530 530> 943 6 948 6<755 755>
VStem: 182 6<264 264> 310 6 739 6<88 98>
LayerCount: 2
Fore
SplineSet
660 545 m 1048
567 -68 m 1,0,1
 732 -63 892 78 892 246 c 0,0,0
 892 261 891 276 888 291 c 1,2,3
 872 412 775 509 662 545 c 2,4,-1
 662 545 l 1,5,-1
 662 545 l 2,6,7
 661 545 660.648785648 545.249301182 660 545.381217588 c 0,0,0
 659.313624577 545.520777054 658.64711434 545.665797792 658 545.81640625 c 0,0,0
 644.682617188 548.913085938 639.637355778 554.267823266 639.637355778 561.011055189 c 0,0,0
 639.637355778 578.957337887 675.37115672 606.74231344 686 628 c 1,8,9
 686 628 875 883 890 908 c 2,10,-1
 891 909 l 1,11,-1
 891 910 l 2,12,13
 889.334130144 948.315006698 859.917036501 955.48697337 827.404680237 955.48697337 c 0,0,0
 807.94977039 955.48697337 787.386556141 952.918944998 770.997838713 952.918944998 c 0,0,0
 765.452380501 952.918944998 760.384879562 953.212970335 756 954 c 2,14,-1
 756 954 l 1,15,-1
 756 954 l 2,16,17
 735.142857143 953.571428571 714.224489796 953.408163265 693.265306122 953.408163265 c 0,0,0
 626.195918367 953.408163265 558.708571429 955.08 491.472 955.08 c 0,0,0
 432.64 955.08 374 953.8 316 949 c 2,18,-1
 314 949 l 1,19,-1
 314 948 l 2,20,21
 279 890 252 819 230 756 c 2,22,-1
 230 755 l 1,23,-1
 230 754 l 2,24,25
 236.845127829 735.860411252 248.961530346 728.614790192 261.979209942 728.614790192 c 0,0,0
 286.99640689 728.614790192 315.342256391 755.374768441 316 783 c 1,26,27
 343.028874479 790.261488666 371.522449449 792.152408868 400.561572538 792.152408868 c 0,0,0
 432.122615699 792.152408868 464.328078498 789.918790847 495.997936318 789.918790847 c 0,0,0
 507.420081167 789.918790847 518.772555712 790.209334909 530 791 c 1,28,29
 537.531560035 789.493687993 546.40769836 788.939785607 555.943920192 788.939785607 c 0,0,0
 582.453531818 788.939785607 614.064115241 793.220214393 636.071138632 793.220214393 c 0,0,0
 652.217194835 793.220214393 663.193822154 790.916134226 663.193822154 782.927070693 c 0,0,0
 663.193822154 782.318230136 663.130071548 781.676372048 663 781 c 1,30,31
 603.659974757 692.978962557 535.516853025 610.826656107 480.819981585 521 c 4,0,0
 480.211647592 520.000955505 479.604976861 519.000961715 479 518 c 2,32,-1
 479 517 l 1,33,-1
 479 516 l 2,34,35
 489 467 559 492 587 468 c 2,36,-1
 588 468 l 1,37,-1
 588 467 l 2,38,39
 671.773325565 434.421484503 717.302504785 348.70729665 717.302504785 263.609165491 c 0,0,0
 717.302504785 202.430056201 693.770654568 141.569357085 644 101 c 1,40,41
 601.826384003 63.7215358599 548.167777191 46.577253149 494.076126612 46.577253149 c 0,0,0
 404.517186136 46.577253149 313.77114043 93.574968425 272 174 c 1,42,43
 280.134064546 171.705776666 288.420377956 170.62954424 296.680891579 170.62954424 c 0,0,0
 351.762025879 170.62954424 405.696043018 218.481282675 405.696043018 272.156972941 c 0,0,0
 405.696043018 287.622923004 401.218284181 303.572394472 391 319 c 1,44,45
 371.529765352 354.886314841 335.735776697 370.659432782 299.197804665 370.659432782 c 0,0,0
 241.471160836 370.659432782 181.887452578 331.287993608 181.887452578 269.660759082 c 0,0,0
 181.887452578 268.120977374 181.924648941 266.567302025 182 265 c 1,46,47
 181.527747329 258.388462609 181.295940883 251.825711408 181.295940883 245.316683414 c 0,0,0
 181.295940883 141.562229225 240.194779379 51.4581049689 323 -5 c 0,48,49
 383.595779973 -45.9661611088 456.574306497 -70.1791945319 529.502403342 -70.1791945319 c 0,0,0
 542.024066831 -70.1791945319 555 -69 567 -68 c 1,0,1
660 539 m 1,50,51
 771 503 866 408 882 290 c 1,52,53
 884.62679413 274.978021069 885.885707769 260.08407036 885.885707769 245.395586247 c 0,0,0
 885.885707769 81.1467542455 728.470544968 -57.4104365828 566 -62 c 2,54,-1
 566 -62 l 1,55,-1
 566 -62 l 2,56,57
 553.518075034 -63.5038463815 540.94568791 -64.2387644236 528.357661283 -64.2387644236 c 0,0,0
 457.240152672 -64.2387644236 385.623459968 -40.781537369 327 0 c 0,58,59
 245.211770155 56.4056757552 187.28554224 143.743576235 187.28554224 245.397005838 c 0,0,0
 187.28554224 251.874640964 187.520756767 258.410405551 188 265 c 2,60,-1
 188 265 l 1,61,-1
 188 265 l 2,62,63
 187.94882 266.241114992 187.9235065 267.473225823 187.9235065 268.69617539 c 0,0,0
 187.9235065 326.718868285 244.904611234 364.11940665 299.806909597 364.11940665 c 0,0,0
 334.187503649 364.11940665 367.752906017 349.453005636 386 316 c 2,64,-1
 386 316 l 1,65,-1
 386 316 l 2,66,67
 395.489611738 301.862415165 399.653322688 287.162235177 399.653322688 272.843739279 c 0,0,0
 399.653322688 222.575246022 348.334402517 177.011117603 295.985501968 177.011117603 c 0,0,0
 286.251509013 177.011117603 276.481904098 178.586514525 267 182 c 2,68,-1
 261 184 l 1,69,-1
 264 177 l 2,70,71
 305.439765523 90.3532175438 400.494445336 39.9753476963 494.21336388 39.9753476963 c 0,0,0
 549.758046274 39.9753476963 604.833527282 57.6711492246 648 96 c 1,72,73
 699.517874783 137.884451043 723.843987358 200.469727508 723.843987358 263.402369193 c 0,0,0
 723.843987358 350.722721444 677.011012457 438.711826115 591 473 c 1,74,75
 557 501 496 473 485 516 c 1,76,77
 539 606 608 690 668 778 c 2,78,-1
 668 778 l 1,79,-1
 668 779 l 2,80,81
 668.342775014 780.40918617 668.508582687 781.726987565 668.508582687 782.958707791 c 0,0,0
 668.508582687 796.071109051 649.717796995 799.428034064 625.599843837 799.428034064 c 0,0,0
 600.293440174 799.428034064 569.121924409 795.732122186 547.638925695 795.732122186 c 0,0,0
 541.021979993 795.732122186 535.324176362 796.082750469 531 797 c 2,82,-1
 530 797 l 1,83,-1
 530 797 l 2,84,85
 518.166666667 796 506.138888889 795.638888889 493.990740741 795.638888889 c 0,0,0
 462.405555556 795.638888889 430.006666667 798.08 398.096 798.08 c 0,0,0
 368.64 798.08 339.6 796 312 788 c 2,86,-1
 310 788 l 1,87,-1
 310 785 l 2,88,89
 310.033809621 784.34071239 310.050472885 783.683139416 310.050472885 783.027619242 c 0,0,0
 310.050472885 757.872646824 285.512671845 735.74056485 263.735914808 735.74056485 c 0,0,0
 252.510639499 735.74056485 242.019000671 741.621276175 236 756 c 1,90,91
 258 819 283 885 318 943 c 1,92,93
 376.414591815 947.49343014 435.496651875 948.649519053 494.973523641 948.649519053 c 0,0,0
 558.020381293 948.649519053 621.510868707 947.350480947 685.120226359 947.350480947 c 0,0,0
 708.402867178 947.350480947 731.701433589 947.524519053 755 948 c 1,94,95
 760.57341757 947.133023934 766.699065955 946.818278683 773.162258206 946.818278683 c 0,0,0
 790.293902022 946.818278683 809.797105978 949.029657317 827.673697506 949.029657317 c 0,0,0
 857.506105106 949.029657317 882.808585105 942.871223426 885 910 c 1,96,97
 828 813 747 725 681 631 c 2,98,-1
 681 631 l 1,99,-1
 681 631 l 2,100,101
 673.255562321 615.511124643 633.788115078 582.178056405 633.788115078 559.616567142 c 0,0,0
 633.788115078 550.132297604 640.762586283 542.551522532 660 539 c 1,50,51
571 864 m 0,102,103
 567.473957986 860.681372222 563.904895306 859.298674385 560.569428013 859.298674385 c 0,0,0
 551.46622589 859.298674385 544.102983747 869.597845698 544.102983747 878.949624 c 0,0,0
 544.102983747 882.691606695 545.281903453 886.281903453 548 889 c 1,104,105
 548 889 553.544356518 889.852977926 560.002617957 889.852977926 c 0,0,0
 569.010193121 889.852977926 579.795579173 888.193687764 579.795579173 880.246561199 c 0,0,0
 579.795579173 876.441686924 577.323308271 871.195488722 571 864 c 0,102,103
575 860 m 2,106,-1
 575 860 l 1,107,-1
 575 860 l 2,108,109
 579.803628612 865.524172904 581.838275483 871.394468526 581.838275483 876.86269662 c 0,0,0
 581.838275483 888.996420083 571.820207218 899.150468349 559.80706648 899.150468349 c 0,0,0
 554.693275357 899.150468349 549.21796491 897.310492752 544 893 c 2,110,-1
 544 893 l 1,111,-1
 544 893 l 2,112,113
 540.087973484 889.087973484 538.400050641 884.063895133 538.400050641 878.914825107 c 0,0,0
 538.400050641 866.484355017 548.237218912 853.32543686 560.367800962 853.32543686 c 0,0,0
 565.04821711 853.32543686 570.070052566 855.284398107 575 860 c 2,106,-1
739 88 m 1,114,115
 737.773813663 79.0079668631 731.702910099 75.1947693832 725.157331474 75.1947693832 c 0,0,0
 716.403998301 75.1947693832 706.801783285 82.0140745779 706.801783285 92.3867171985 c 0,0,0
 706.801783285 93.2346601744 706.865952376 94.106349175 707 95 c 0,116,117
 707.892718713 100.802671637 714.364064334 104.015266494 721.25602992 104.015266494 c 0,0,0
 729.804461141 104.015266494 739 99.0728128669 739 88 c 1,114,115
745 87 m 2,118,-1
 745 87 l 1,119,-1
 745 88 l 2,120,121
 745 103.013574522 732.322765135 110.606328635 720.551058024 110.606328635 c 0,0,0
 711.152850433 110.606328635 702.331825053 105.766717056 701 96 c 0,122,123
 700.830027973 94.8101958109 700.748533072 93.6492821119 700.748533072 92.5193305516 c 0,0,0
 700.748533072 78.0765805143 714.062595121 68.6922062813 726.110502294 68.6922062813 c 0,0,0
 735.30218058 68.6922062813 743.756883049 74.1544581732 745 87 c 2,118,-1
EndSplineSet
Validated: 5
EndChar

StartChar: four
Encoding: 52 52 6
Width: 1024
VWidth: 0
GlyphClass: 2
Flags: HMW
HStem: -57 6<570 733 570 734 570 734> 160 6<239 537 537 537> 257 6<276 537 276 543> 957 6<570 570>
VStem: 454 6<902 902> 537 6<263 428 257 430 263 263> 606 6 682 6<114 160 114 165 114 160 286 501 286 286>
LayerCount: 2
Fore
SplineSet
688 114 m 2
 688 160 l 1
 732 167 772 179 810 199 c 0
 839 213 866 232 889 255 c 2
 890 256 l 1
 890 257 l 2
 892 277 871 288 864 301 c 2
 864 301 l 1
 863 302 l 2
 854 311 847 332 829 334 c 2
 828 334 l 1
 827 334 l 2
 791 304 751 278 705 268 c 2
 705 268 l 1
 705 267 l 2
 687 257 685 267 688 286 c 2
 688 286 l 1
 688 502 l 1
 688 503 l 2
 678 526 646 538 626 521 c 1
 626 521 593 466 591 465 c 2
 591 465 l 1
 590 465 l 2
 574 454 547 454 537 430 c 2
 537 430 l 1
 537 263 l 1
 276 263 l 1
 265 268 270 281 281 285 c 2
 281 285 l 1
 282 286 l 2
 326 320 368 357 406 399 c 2
 406 399 l 1
 406 400 l 2
 425 425 449 448 466 476 c 1
 519 549 555 632 582 718 c 1
 604 792 614 868 612 945 c 2
 612 946 l 1
 612 947 l 2
 604 964 585 965 570 963 c 0
 537 962 503 965 470 961 c 2
 470 961 l 1
 469 961 l 2
 443 952 455 919 454 903 c 2
 454 903 l 1
 454 903 l 2
 455 857 453 811 444 766 c 0
 437 729 427 693 415 657 c 0
 393 597 362 539 323 488 c 2
 323 488 l 1
 323 488 l 2
 291 440 247 403 205 364 c 0
 174 334 151 299 128 263 c 2
 128 263 l 1
 128 263 l 2
 111 231 97 197 86 163 c 2
 85 162 l 1
 85 162 l 2
 82 148 87 131 100 122 c 0
 123 103 159 111 178 133 c 2
 179 133 l 1
 179 134 l 2
 189 156 215 163 238 160 c 2
 239 160 l 1
 537 160 l 1
 536 119 538 77 536 37 c 1
 530 17 508 27 489 22 c 2
 489 22 l 1
 488 22 l 2
 458 8 458 -40 488 -55 c 2
 488 -55 l 1
 488 -55 l 2
 514 -59 544 -56 570 -57 c 2
 570 -57 l 1
 734 -57 l 1
 734 -57 l 2
 760 -45 770 -9 748 13 c 1
 746 11 691 33 691 34 c 0
 685 61 690 86 688 114 c 2
682 501 m 1
 682 286 l 2
 683 306 685 306 682 287 c 0
 679 269 682 249 707 262 c 1
 753 272 793 297 830 328 c 1
 843 325 847 311 859 298 c 1
 867 284 884 272 884 258 c 1
 862 238 835 218 807 204 c 0
 769 184 728 172 685 165 c 2
 682 165 l 1
 682 114 l 1
 682 113 l 2
 684 87 679 59 685 32 c 2
 685 32 l 1
 685 31 l 2
 697 4 732 26 744 9 c 2
 744 9 l 1
 744 8 l 2
 762 -9 756 -40 733 -51 c 1
 570 -51 l 2
 590 -51 590 -52 570 -51 c 0
 543 -50 516 -53 490 -49 c 1
 466 -36 464 2 490 16 c 1
 503 19 535 10 541 35 c 2
 541 36 l 1
 541 36 l 2
 544 78 542 121 543 163 c 2
 543 166 l 1
 239 166 l 2
 259 165 258 163 239 166 c 0
 214 169 186 162 174 136 c 1
 157 117 123 109 103 126 c 2
 103 126 l 1
 103 126 l 2
 93 133 88 149 91 161 c 1
 86 142 85 142 91 161 c 0
 102 195 116 229 133 260 c 1
 123 243 123 243 133 260 c 0
 156 296 179 331 209 360 c 0
 251 399 296 436 328 485 c 1
 317 469 316 469 328 485 c 0
 367 537 398 594 420 655 c 0
 432 691 443 728 450 765 c 0
 459 810 461 857 460 903 c 1
 459 883 458 883 460 902 c 0
 462 924 449 948 471 956 c 1
 503 960 537 956 570 957 c 2
 571 957 l 1
 571 957 l 2
 586 959 599 957 606 944 c 1
 608 869 597 792 575 719 c 1
 548 634 514 551 461 479 c 2
 461 479 l 1
 461 479 l 2
 445 452 422 429 402 403 c 1
 415 418 415 417 402 403 c 0
 364 362 324 326 279 291 c 1
 267 286 255 266 274 258 c 2
 275 257 l 1
 543 257 l 1
 543 428 l 1
 551 447 575 446 594 460 c 1
 578 449 577 450 594 460 c 0
 618 474 610 506 629 516 c 2
 629 516 l 1
 629 516 l 2
 645 530 673 521 682 501 c 1
508 803 m 1
 523 780 563 808 544 830 c 1
 556 815 555 813 544 829 c 0
 528 852 490 825 508 803 c 1
512 807 m 2
 499 822 528 842 539 826 c 2
 539 826 l 1
 539 826 l 2
 552 812 523 791 513 807 c 2
 513 807 l 1
 512 807 l 2
601 79 m 0
 586 97 612 120 628 98 c 1
 636 82 614 66 601 79 c 0
633 101 m 2
 633 101 l 1
 633 102 l 2
 611 131 577 99 597 75 c 2
 597 75 l 1
 597 75 l 2
 614 58 645 79 633 101 c 2
EndSplineSet
Validated: 37
EndChar

StartChar: five
Encoding: 53 53 7
Width: 868
VWidth: 0
GlyphClass: 2
Flags: HMW
HStem: 112 6<622 622> 623 6<446 446> 793 6<260 260> 951 6<186 596 596 596>
VStem: 158 6<397 919 395 920> 254 6<585 793 585 799>
LayerCount: 2
Fore
SplineSet
686 744 m 2
 699 729 717 734 733 741 c 2
 733 741 l 1
 734 741 l 2
 756 761 733 788 727 806 c 2
 727 806 l 1
 727 806 l 2
 707 851 690 898 668 942 c 2
 668 942 l 1
 668 942 l 2
 650 965 618 954 596 957 c 2
 596 957 l 1
 185 957 l 1
 185 957 l 2
 166 954 155 938 158 919 c 1
 158 395 l 1
 158 394 l 2
 180 363 228 362 254 388 c 2
 255 389 l 1
 255 389 l 2
 267 407 275 427 289 443 c 2
 289 443 l 1
 290 443 l 2
 325 491 385 522 445 513 c 0
 498 504 543 467 570 421 c 0
 592 383 607 341 610 297 c 0
 617 230 601 160 561 106 c 0
 544 81 520 61 494 46 c 0
 445 21 383 24 338 57 c 1
 327 67 310 74 312 82 c 1
 329 107 337 136 329 165 c 0
 318 217 260 253 208 239 c 0
 164 229 127 184 136 137 c 2
 136 137 l 1
 136 137 l 2
 147 98 161 56 194 29 c 1
 235 -11 287 -40 343 -54 c 0
 382 -65 424 -68 464 -63 c 0
 513 -58 560 -40 602 -15 c 2
 602 -15 l 1
 602 -15 l 2
 642 12 681 45 706 87 c 1
 740 136 758 194 764 253 c 0
 768 298 762 344 749 387 c 0
 735 428 716 464 694 495 c 2
 694 495 l 1
 694 495 l 2
 657 540 611 578 558 602 c 0
 523 617 485 625 447 629 c 2
 447 629 l 1
 447 629 l 2
 416 630 386 628 356 621 c 0
 322 615 288 602 260 585 c 1
 260 793 l 1
 642 794 l 1
 656 788 686 744 686 744 c 2
690 492 m 1
 710 461 729 426 743 385 c 0
 756 343 761 297 758 253 c 0
 752 195 734 137 701 90 c 2
 701 90 l 1
 701 90 l 2
 676 49 639 17 599 -10 c 1
 616 1 616 0 599 -10 c 0
 558 -35 512 -52 464 -57 c 0
 424 -62 383 -60 344 -49 c 0
 289 -35 239 -6 198 34 c 2
 198 34 l 1
 198 34 l 2
 166 60 153 99 142 138 c 1
 146 119 146 119 142 138 c 0
 134 181 169 223 210 233 c 0
 258 246 312 213 323 164 c 0
 330 137 323 108 307 85 c 2
 307 85 l 1
 306 84 l 2
 301 69 327 60 334 53 c 2
 334 52 l 1
 334 52 l 2
 381 18 445 15 496 41 c 2
 496 41 l 1
 497 41 l 2
 524 57 547 77 565 103 c 0
 606 158 623 230 616 298 c 0
 613 343 598 386 575 424 c 0
 548 472 501 510 446 519 c 0
 384 528 321 497 285 447 c 1
 297 462 298 462 285 447 c 0
 271 430 261 409 250 393 c 1
 227 369 186 370 164 397 c 1
 164 920 l 1
 164 920 l 2
 160 935 171 949 186 951 c 1
 166 950 166 951 186 951 c 2
 596 951 l 2
 576 952 577 953 596 951 c 0
 621 948 646 959 663 939 c 1
 685 895 702 849 722 804 c 1
 715 822 715 823 721 804 c 0
 728 782 746 763 730 746 c 1
 716 740 696 741 685 754 c 2
 684 754 l 1
 684 754 l 2
 671 765 670 796 644 799 c 2
 644 799 l 1
 254 799 l 1
 254 574 l 1
 258 577 l 2
 288 596 322 610 357 616 c 2
 357 616 l 1
 357 616 l 2
 386 623 416 624 446 623 c 1
 426 624 427 625 446 623 c 0
 483 619 522 612 556 597 c 0
 608 574 654 536 690 492 c 1
409 866 m 0
 431 843 466 886 429 903 c 2
 429 903 l 1
 429 903 l 2
 410 909 395 880 409 866 c 0
413 870 m 0
 403 881 415 901 427 897 c 1
 429 902 443 837 413 870 c 0
618 74 m 0
 646 66 667 117 622 117 c 2
 622 117 l 1
 622 117 l 2
 600 115 598 79 618 74 c 0
623 112 m 0
 660 112 639 75 621 80 c 0
 607 84 608 110 623 112 c 0
EndSplineSet
Validated: 37
EndChar

StartChar: six
Encoding: 54 54 8
Width: 1024
VWidth: 0
GlyphClass: 2
Flags: HMW
HStem: -61 6<527 527> 790 6<310 310> 862 6
VStem: 170 6 319 6<599 599> 869 6<239 239>
LayerCount: 2
Fore
SplineSet
527 -61 m 1
 590 -68 657 -52 713 -22 c 0
 756 3 793 39 822 79 c 0
 854 126 871 182 874 239 c 2
 874 239 l 1
 874 239 l 2
 865 355 819 466 736 521 c 1
 688 558 626 573 566 577 c 0
 529 580 492 571 457 562 c 2
 457 562 l 1
 457 562 l 2
 415 547 373 527 341 495 c 1
 328 528 327 563 325 599 c 1
 327 637 331 676 349 709 c 2
 349 709 l 1
 349 709 l 2
 367 754 401 791 442 818 c 0
 481 846 529 860 577 862 c 2
 577 862 l 1
 577 862 l 2
 594 864 614 861 631 859 c 1
 591 828 580 767 608 725 c 0
 628 694 665 675 702 679 c 1
 746 681 787 717 793 762 c 1
 800 790 792 821 770 841 c 1
 719 902 646 943 567 955 c 0
 532 961 495 960 460 954 c 2
 460 954 l 1
 459 954 l 2
 425 944 390 933 362 909 c 1
 326 886 299 854 274 820 c 2
 274 820 l 1
 274 820 l 2
 241 771 214 717 198 660 c 1
 180 604 171 545 168 487 c 0
 166 450 167 413 170 376 c 0
 180 286 203 197 250 118 c 1
 267 86 290 57 315 31 c 0
 346 -1 383 -28 425 -44 c 0
 458 -56 492 -60 527 -61 c 1
733 516 m 2
 733 516 l 1
 733 516 l 2
 814 462 860 354 869 239 c 1
 869 259 870 259 869 239 c 0
 866 183 848 128 817 82 c 0
 789 42 752 8 710 -16 c 0
 655 -46 591 -62 528 -55 c 2
 527 -55 l 1
 527 -55 l 2
 493 -54 459 -51 427 -39 c 0
 386 -23 349 3 319 35 c 0
 294 60 271 89 255 121 c 2
 255 121 l 1
 255 121 l 2
 209 198 186 288 176 377 c 0
 173 413 172 450 174 487 c 0
 177 545 186 603 204 658 c 1
 220 715 247 768 279 817 c 1
 268 801 267 801 279 817 c 0
 304 850 331 881 366 904 c 2
 367 904 l 1
 367 905 l 2
 394 928 427 938 461 948 c 1
 442 944 442 945 461 948 c 0
 496 954 531 956 566 950 c 0
 643 939 715 897 765 837 c 2
 765 837 l 1
 765 836 l 2
 785 817 793 789 787 763 c 2
 787 763 l 1
 787 763 l 2
 782 721 743 687 702 685 c 2
 702 685 l 1
 702 685 l 2
 667 681 632 700 613 729 c 0
 585 770 599 832 641 858 c 2
 649 863 l 1
 640 864 l 2
 618 865 599 871 577 868 c 1
 597 870 597 869 577 868 c 0
 528 866 479 851 439 823 c 0
 398 796 363 758 344 711 c 1
 352 729 353 728 344 711 c 0
 325 676 321 637 319 599 c 2
 319 599 l 1
 319 599 l 2
 321 562 321 524 337 489 c 2
 339 485 l 1
 342 488 l 2
 373 521 416 542 459 557 c 1
 440 551 440 552 459 557 c 0
 494 566 530 574 566 571 c 0
 625 567 686 552 733 516 c 2
597 58 m 2
 597 58 l 1
 597 58 l 2
454 69 m 1
 454 69 l 1
782 108 m 2
 782 109 l 1
 782 109 l 2
 764 144 734 121 743 89 c 2
 743 88 l 1
 743 88 l 2
 757 68 788 86 782 108 c 2
776 106 m 1
 780 89 757 79 748 91 c 1
 741 119 762 133 776 106 c 1
303 755 m 0
 330 739 357 796 310 796 c 2
 310 796 l 1
 310 796 l 2
 288 794 286 763 303 755 c 0
310 790 m 0
 348 790 324 750 306 760 c 2
 306 760 l 1
 306 760 l 2
 294 766 296 788 310 790 c 0
701 191 m 0
 712 235 709 282 697 325 c 0
 682 375 650 425 602 449 c 0
 553 475 491 469 447 436 c 0
 400 401 373 346 364 289 c 0
 361 261 359 233 365 205 c 0
 375 150 403 94 451 63 c 1
 435 74 435 75 451 63 c 0
 493 32 554 27 600 53 c 1
 583 44 582 45 600 53 c 0
 654 79 689 134 701 191 c 0
695 193 m 0
 683 137 649 83 597 58 c 2
 597 58 l 1
 597 58 l 2
 553 33 495 39 454 69 c 2
 454 69 l 1
 454 69 l 2
 408 99 381 152 371 206 c 0
 365 233 366 261 369 288 c 0
 378 343 405 397 450 431 c 0
 492 463 552 468 599 443 c 0
 645 420 677 373 692 324 c 0
 704 282 705 236 695 193 c 0
EndSplineSet
Validated: 37
EndChar

StartChar: seven
Encoding: 55 55 9
Width: 1024
VWidth: 0
GlyphClass: 2
Flags: HMW
HStem: -71 6<278 517 278 518 278 518> 726 6<163 163> 774 6<244 656 656 656> 945 6<224 851 224 851 224 851>
VStem: 322 6<52 52>
LayerCount: 2
Fore
SplineSet
738 703 m 0
 794 769 848 836 892 911 c 2
 892 911 l 1
 892 912 l 2
 904 939 871 954 851 950 c 1
 224 950 l 1
 224 950 l 2
 205 947 198 930 193 915 c 0
 171 863 148 811 126 759 c 2
 126 758 l 1
 126 757 l 2
 127 738 144 725 163 726 c 0
 182 726 198 740 203 758 c 0
 209 774 227 776 244 774 c 2
 244 774 l 1
 656 774 l 1
 602 722 558 666 516 606 c 0
 477 549 445 488 417 425 c 0
 391 371 373 312 356 255 c 1
 338 189 329 120 322 52 c 2
 322 52 l 1
 322 52 l 2
 322 34 320 12 301 10 c 1
 284 11 263 12 253 -8 c 0
 240 -30 250 -64 276 -71 c 2
 276 -71 l 1
 518 -71 l 1
 518 -70 l 2
 545 -58 554 -19 530 1 c 1
 525 -3 476 18 475 20 c 0
 465 37 477 58 479 80 c 0
 498 208 538 333 591 451 c 0
 624 526 669 603 716 672 c 0
 723 682 731 693 738 703 c 0
733 705 m 1
 728 698 l 2
 673 621 625 539 586 453 c 0
 534 334 493 210 474 81 c 2
 474 81 l 1
 474 81 l 2
 473 62 463 40 469 18 c 2
 469 18 l 1
 469 18 l 2
 481 -8 514 11 526 -3 c 2
 526 -3 l 1
 527 -3 l 2
 547 -20 541 -54 517 -65 c 1
 278 -65 l 1
 258 -59 247 -30 258 -11 c 2
 258 -11 l 1
 259 -11 l 2
 267 5 284 5 301 4 c 2
 301 4 l 1
 302 4 l 2
 328 6 328 35 328 52 c 1
 327 32 326 33 328 52 c 0
 335 120 344 187 362 253 c 1
 379 310 396 368 422 422 c 0
 450 485 482 546 521 602 c 0
 564 663 611 723 665 775 c 2
 670 780 l 1
 244 780 l 2
 264 779 263 777 244 780 c 0
 227 782 205 779 198 759 c 2
 198 759 l 1
 198 759 l 2
 194 744 179 732 163 732 c 2
 163 732 l 1
 163 732 l 2
 147 731 133 741 132 757 c 1
 154 808 176 861 198 913 c 2
 198 913 l 1
 198 913 l 2
 203 928 210 943 225 945 c 1
 205 943 204 945 224 945 c 2
 851 945 l 1
 852 945 l 2
 871 949 896 934 887 914 c 1
 896 931 897 931 887 914 c 0
 843 840 789 772 733 706 c 1
 733 705 l 1
493 863 m 1
 486 874 492 888 503 890 c 1
 546 888 509 845 493 863 c 1
488 860 m 2
 488 860 l 1
 489 860 l 2
 514 832 556 894 503 896 c 2
 502 896 l 1
 502 896 l 2
 485 893 479 873 488 860 c 2
381 67 m 2
 381 67 l 1
 381 66 l 2
 401 35 452 85 406 99 c 2
 406 99 l 1
 404 99 l 2
 385 102 375 82 381 67 c 2
386 69 m 1
 382 82 391 94 403 93 c 1
 439 82 400 49 386 69 c 1
EndSplineSet
Validated: 37
EndChar

StartChar: eight
Encoding: 56 56 10
Width: 1024
VWidth: 0
GlyphClass: 2
Flags: HMW
HStem: -59 6<542 542> 40 6 416 6
VStem: 249 6<707 707> 809 6<686 686>
LayerCount: 2
Fore
SplineSet
655 336 m 1
 685 307 709 271 724 233 c 1
 721 203 719 174 702 150 c 2
 702 150 l 1
 701 150 l 2
 681 109 643 77 601 59 c 0
 564 44 523 40 484 46 c 0
 445 53 406 69 377 96 c 0
 349 121 328 155 319 191 c 0
 314 220 312 250 321 278 c 2
 321 278 l 1
 321 278 l 2
 337 346 395 400 462 416 c 1
 492 416 560 412 655 336 c 1
575 395 m 0
 565 399 557 404 547 408 c 2
 547 408 l 1
 546 408 l 2
 518 415 490 422 461 422 c 2
 461 422 l 1
 461 422 l 2
 391 406 332 349 315 279 c 1
 320 298 321 298 315 279 c 0
 305 250 309 219 314 190 c 2
 314 190 l 1
 314 190 l 2
 323 152 344 118 373 92 c 0
 403 64 443 47 483 40 c 0
 523 34 565 39 603 54 c 0
 646 72 685 103 707 146 c 1
 697 129 696 130 707 146 c 0
 725 172 727 203 730 233 c 2
 730 234 l 1
 730 234 l 2
 714 274 689 310 659 340 c 2
 659 340 l 1
 659 340 l 2
 634 362 606 381 575 395 c 0
307 530 m 0
 329 501 358 480 388 461 c 2
 388 461 l 1
 389 461 l 2
 394 460 396 458 397 458 c 1
 392 455 383 453 376 450 c 0
 323 431 275 396 240 352 c 0
 209 316 190 271 187 224 c 0
 185 194 191 163 200 135 c 2
 200 135 l 1
 200 135 l 2
 218 90 247 51 287 22 c 1
 325 -11 373 -29 419 -45 c 2
 420 -45 l 1
 420 -45 l 2
 460 -54 501 -61 543 -59 c 1
 582 -59 621 -52 658 -41 c 2
 658 -41 l 1
 658 -41 l 2
 705 -25 751 -4 788 30 c 0
 828 64 858 111 871 162 c 0
 881 208 875 257 855 300 c 0
 839 335 815 365 787 390 c 0
 764 412 735 427 708 442 c 2
 707 442 l 1
 707 442 l 2
 694 448 679 452 667 457 c 1
 693 470 714 489 736 507 c 2
 736 507 l 1
 736 507 l 2
 763 533 784 565 797 601 c 0
 808 628 814 657 815 686 c 0
 817 737 801 788 775 831 c 0
 755 863 730 891 697 911 c 1
 621 966 518 978 431 946 c 0
 384 929 341 899 309 861 c 0
 273 818 251 763 249 707 c 0
 245 644 266 579 307 530 c 0
391 466 m 1
 362 485 333 506 311 534 c 2
 311 534 l 1
 311 534 l 2
 271 582 250 645 254 707 c 0
 256 762 278 815 314 857 c 0
 345 895 387 923 433 940 c 0
 518 971 619 960 693 906 c 2
 694 906 l 1
 694 906 l 2
 726 887 750 859 770 828 c 0
 796 786 811 736 809 687 c 0
 808 659 803 629 792 603 c 0
 779 568 759 537 732 511 c 1
 746 524 747 524 732 511 c 0
 709 491 685 472 658 460 c 2
 652 457 l 1
 658 454 l 2
 674 447 690 442 705 436 c 1
 687 444 688 445 705 436 c 0
 732 421 760 408 783 386 c 0
 811 361 835 332 850 298 c 0
 869 257 875 209 865 164 c 0
 853 114 824 69 785 35 c 0
 749 2 702 -19 656 -35 c 1
 675 -29 676 -29 657 -35 c 0
 620 -46 581 -53 543 -53 c 2
 542 -53 l 1
 542 -53 l 2
 501 -55 461 -49 421 -40 c 1
 440 -45 439 -46 421 -40 c 0
 375 -24 328 -7 291 25 c 2
 291 26 l 1
 290 26 l 2
 251 54 224 93 206 137 c 1
 213 119 212 118 206 137 c 0
 197 165 191 194 193 223 c 0
 196 269 215 314 245 349 c 0
 280 392 326 425 378 444 c 2
 378 444 l 1
 378 444 l 2
 386 448 424 458 391 466 c 1
703 787 m 1
 717 762 728 733 723 705 c 2
 723 705 l 1
 723 705 l 2
 720 669 698 635 669 613 c 2
 669 613 l 1
 669 613 l 2
 650 597 625 588 602 581 c 1
 544 578 487 595 445 633 c 0
 423 653 404 678 394 705 c 2
 394 705 l 1
 393 705 l 2
 383 719 391 738 394 756 c 1
 406 793 436 823 470 841 c 1
 513 860 561 867 606 853 c 2
 606 853 l 1
 607 853 l 2
 646 845 680 819 703 787 c 1
388 757 m 2
 388 757 l 1
 388 757 l 2
 385 741 377 719 388 703 c 1
 399 674 419 651 441 629 c 0
 485 589 544 572 602 575 c 2
 603 575 l 1
 603 575 l 2
 627 582 653 592 673 609 c 1
 658 597 657 597 673 609 c 0
 704 631 726 667 729 705 c 1
 726 686 726 686 729 705 c 0
 734 736 722 764 708 790 c 2
 708 790 l 1
 708 790 l 2
 684 823 649 849 608 858 c 1
 627 853 627 852 608 858 c 0
 561 872 511 866 467 846 c 2
 467 846 l 1
 467 846 l 2
 432 827 401 796 388 757 c 2
731 47 m 1
 763 45 753 101 724 90 c 0
 702 84 705 46 731 47 c 1
730 53 m 2
 713 52 708 80 725 84 c 2
 726 84 l 1
 726 84 l 2
 746 92 754 51 731 53 c 2
 731 53 l 1
 730 53 l 2
362 812 m 0
 359 796 334 796 330 810 c 1
 336 838 364 843 362 812 c 0
367 811 m 2
 367 811 l 1
 367 811 l 2
 369 851 330 844 324 811 c 2
 324 810 l 1
 324 810 l 2
 329 788 363 789 367 811 c 2
EndSplineSet
Validated: 37
EndChar

StartChar: nine
Encoding: 57 57 11
Width: 1024
VWidth: 0
GlyphClass: 2
Flags: HMW
HStem: 113 6<749 749> 331 6<510 510> 959 6
VStem: 182 6<631 631> 263 6<124 124> 350 6<652 652> 732 6<298 298> 884 6<428 428>
LayerCount: 2
Fore
SplineSet
688 623 m 1026,4,5
570 457 m 1026,10,11
572 452 m 1024,32,33
689 722 m 2,40,-1
 689 722 l 1,41,-1
 689 722 l 2,40,-1
350 652 m 1024,0,0
374 545 m 1,25,-1
 375 545 l 1026,26,27
511 331 m 1,52,53
 563 332 614 346 660 371 c 2,54,-1
 660 371 l 1,55,-1
 660 371 l 2,56,57
 679 383 701 397 717 412 c 1,58,59
 729 375 734 337 732 298 c 0,60,61
 729 211 679 127 603 83 c 2,62,-1
 603 83 l 1,63,-1
 603 83 l 2,64,65
 551 50 486 43 426 50 c 1,66,67
 456 75 472 114 462 151 c 1,68,69
 454 190 421 221 382 228 c 0,70,71
 347 234 310 222 287 195 c 0,72,73
 271 175 259 151 263 124 c 1,74,75
 262 86 295 61 317 37 c 2,76,-1
 317 37 l 1,77,-1
 317 37 l 2,78,79
 356 -2 408 -25 460 -40 c 2,80,-1
 460 -40 l 1,81,-1
 460 -40 l 2,82,83
 515 -52 576 -57 630 -35 c 0,84,85
 667 -22 701 1 730 27 c 2,86,-1
 731 28 l 1,87,-1
 731 28 l 2,88,89
 754 51 777 75 793 104 c 1,90,91
 837 167 861 241 876 315 c 0,92,93
 884 352 887 390 890 428 c 2,94,-1
 890 428 l 1,95,-1
 890 428 l 2,96,97
 891 469 890 510 884 550 c 0,98,99
 876 621 856 690 826 755 c 1,100,101
 791 824 743 890 675 930 c 0,102,103
 641 949 602 964 562 965 c 1,104,105
 504 973 444 970 389 948 c 0,106,107
 343 929 299 903 265 865 c 0,108,109
 236 834 215 797 200 758 c 2,110,-1
 200 758 l 1,111,-1
 200 758 l 2,112,113
 187 717 177 674 182 631 c 1,114,115
 184 583 198 537 220 495 c 2,116,-1
 220 495 l 1,117,-1
 221 495 l 2,118,119
 243 460 268 425 302 401 c 1,120,121
 329 377 363 363 395 349 c 2,122,-1
 395 349 l 1,123,-1
 395 349 l 2,124,125
 432 337 471 328 511 331 c 1,52,53
657 376 m 0,126,127
 612 351 561 338 510 337 c 2,128,-1
 510 337 l 1,129,-1
 510 337 l 2,130,131
 471 334 434 343 397 355 c 1,132,133
 415 348 415 347 397 355 c 0,134,135
 365 369 332 383 306 406 c 2,136,-1
 306 406 l 1,137,-1
 305 406 l 2,138,139
 272 430 248 463 226 498 c 1,140,141
 236 481 235 481 226 498 c 0,142,143
 204 540 190 584 188 631 c 2,144,-1
 188 631 l 1,145,-1
 188 632 l 2,146,147
 183 674 193 716 206 756 c 1,148,149
 199 738 199 738 206 756 c 0,150,151
 221 794 241 831 269 861 c 0,152,153
 302 898 345 924 391 943 c 0,154,155
 445 965 504 967 561 959 c 2,156,-1
 562 959 l 1,157,-1
 562 959 l 2,158,159
 601 958 638 943 672 924 c 0,160,161
 739 885 786 821 821 753 c 1,162,163
 850 690 871 620 879 550 c 0,164,165
 885 510 885 469 884 428 c 1,166,167
 885 448 885 449 884 429 c 0,168,169
 881 391 879 353 871 316 c 0,170,171
 856 242 831 168 788 106 c 2,172,-1
 788 106 l 1,173,-1
 788 106 l 2,174,175
 772 78 749 55 726 32 c 1,176,177
 740 46 742 45 727 32 c 0,178,179
 698 6 665 -16 628 -29 c 0,180,181
 575 -51 516 -46 461 -34 c 1,182,183
 480 -39 481 -39 462 -34 c 0,184,185
 410 -19 359 3 321 41 c 1,186,187
 335 27 334 26 321 41 c 0,188,189
 299 66 268 90 269 124 c 2,190,-1
 269 124 l 1,191,-1
 269 124 l 2,192,193
 266 148 276 172 291 191 c 0,194,195
 313 216 348 227 381 222 c 0,196,197
 418 216 449 187 456 150 c 2,198,-1
 456 150 l 1,199,-1
 456 150 l 2,200,201
 466 113 449 72 417 50 c 2,202,-1
 411 46 l 1,203,-1
 418 45 l 2,204,205
 481 36 551 42 606 78 c 1,206,207
 589 68 589 68 606 78 c 0,208,209
 684 123 735 209 738 298 c 0,210,211
 740 339 734 379 721 418 c 2,212,-1
 720 422 l 1,213,-1
 716 419 l 2,214,215
 699 402 677 389 657 376 c 0,126,127
743 157 m 0,216,217
 707 156 716 113 749 113 c 2,218,-1
 750 113 l 1,219,-1
 750 114 l 2,220,221
 774 120 767 159 743 157 c 0,216,217
743 151 m 0,222,223
 761 152 765 124 749 119 c 1,224,225
 722 119 716 150 743 151 c 0,222,223
280 791 m 1,226,227
 295 771 339 795 311 821 c 0,228,229
 293 838 260 810 280 791 c 1,226,227
285 795 m 2,230,231
 271 807 294 829 307 817 c 0,232,233
 329 795 294 781 285 794 c 2,234,-1
 285 795 l 1,235,-1
 285 795 l 2,230,231
683 721 m 0,236,237
 690 689 693 656 688 624 c 2,238,-1
 688 623 l 1,239,-1
 688 623 l 2,240,241
 686 599 679 576 669 554 c 0,242,243
 649 511 615 472 570 457 c 2,244,-1
 570 457 l 1,245,-1
 570 457 l 2,246,247
 517 434 451 456 414 499 c 0,248,249
 401 514 390 530 380 547 c 1,250,251
 366 580 355 617 356 653 c 0,252,253
 356 686 361 720 374 750 c 0,254,255
 392 792 421 831 463 850 c 0,256,257
 499 868 544 867 581 851 c 0,258,259
 633 826 668 776 683 721 c 0,236,237
374 545 m 2,260,-1
 374 545 l 1,261,-1
 375 545 l 2,262,263
 385 527 397 510 410 495 c 0,264,265
 449 450 517 428 573 452 c 1,266,267
 555 445 553 446 572 452 c 0,268,269
 619 468 653 507 675 551 c 0,270,271
 685 574 692 598 694 623 c 1,272,273
 692 604 691 604 694 623 c 0,274,275
 700 656 696 690 689 722 c 2,276,-1
 689 722 l 1,277,-1
 689 722 l 2,278,279
 673 778 638 831 584 857 c 0,280,281
 545 874 499 874 461 855 c 0,282,283
 417 835 386 795 368 752 c 0,284,285
 354 721 350 686 350 653 c 0,286,287
 349 615 360 579 374 545 c 2,260,-1
EndSplineSet
Validated: 43
EndChar

StartChar: uni0410
Encoding: 1040 1040 12
Width: 1024
VWidth: 0
Flags: W
HStem: 110 4<129.451 296 677.725 893.35> 168 6<124.137 185.075 289.926 299.015 853.407 896.007> 340 5<342.812 627.814> 407 5<369 603>
LayerCount: 2
Fore
SplineSet
699 109 m 4
 762 110 828 108 891 110 c 4
 892 110 l 5
 924 119 920 172 886 174 c 5
 880 174 874 174 868 174 c 4
 848 173 834 191 830 210 c 4
 738 448 648 687 556 925 c 4
 540 957 488 953 477 919 c 4
 383 675 290 430 196 186 c 5
 183 166 158 176 136 174 c 4
 102 174 96 122 126 111 c 4
 127 110 l 4
 157 106 188 110 218 109 c 4
 244 110 271 106 297 110 c 4
 297 111 l 5
 298 111 l 4
 328 122 321 174 287 174 c 4
 272 171 290 187 291 202 c 5
 307 247 321 292 338 334 c 5
 350 346 369 337 387 340 c 4
 466 340 546 341 624 340 c 5
 640 333 638 312 647 295 c 6
 690 175 l 5
 668 177 650 155 656 133 c 4
 660 111 681 106 699 109 c 4
869 168 m 4
 875 168 880 168 886 168 c 5
 913 167 917 123 891 115 c 5
 828 113 761 115 698 114 c 4
 682 111 665 118 662 134 c 4
 662 135 l 5
 656 154 673 174 693 169 c 4
 699 167 l 5
 652 297 l 5
 645 310 646 337 626 345 c 4
 625 345 l 5
 546 346 466 346 387 346 c 4
 372 343 348 353 334 338 c 4
 334 337 l 5
 333 337 l 4
 315 293 302 247 286 203 c 4
 286 202 l 4
 286 198 264 164 287 169 c 5
 314 169 320 125 296 116 c 5
 271 112 245 115 218 114 c 5
 234 114 234 113 218 114 c 4
 187 115 159 112 128 116 c 5
 105 126 109 169 136 169 c 4
 137 169 l 4
 156 171 187 160 201 184 c 4
 295 428 389 674 483 918 c 4
 492 947 536 949 550 922 c 5
 543 937 544 938 550 923 c 4
 642 685 733 446 825 208 c 5
 820 223 821 225 824 209 c 4
 828 187 845 167 869 168 c 4
488 719 m 6
 486 726 l 5
 483 719 l 4
 443 616 403 513 362 410 c 4
 360 407 l 5
 611 407 l 5
 610 410 l 4
 570 513 528 616 488 719 c 6
486 710 m 5
 525 610 564 511 603 412 c 5
 369 412 l 5
 409 512 447 611 486 710 c 5
499 817 m 4
 502 794 540 800 536 825 c 4
 530 847 494 839 499 817 c 4
530 824 m 4
 533 806 507 804 505 818 c 4
 502 833 526 839 530 824 c 4
737 228 m 4
 741 206 777 212 774 236 c 4
 774 237 l 5
 768 259 732 250 737 228 c 4
742 229 m 4
 739 244 764 249 768 234 c 5
 768 234 746 202 742 229 c 4
EndSplineSet
Validated: 37
EndChar

StartChar: uni0411
Encoding: 1041 1041 13
Width: 1024
VWidth: 0
Flags: W
HStem: -147 6<3.35815 471.666> -75 6<177 388.369> 284 6<380 391.606> 357 5<177 460.485> 645 6<177 506.465> 714 6<4.41583 544.561 552.861 597.83>
VStem: 49 6<-60.8979 632.868> 171 6<-69 284 362 645> 541 6<73.5605 140.127> 660 6<558.495 582.028>
LayerCount: 2
Fore
SplineSet
49 -50 m 0
 48 -68 31 -84 13 -80 c 0
 12 -80 l 0
 -6 -82 -14 -97 -15 -112 c 0
 -16 -129 -7 -146 15 -147 c 0
 159 -147 303 -149 447 -147 c 1
 556 -141 656 -58 680 48 c 1
 705 146 664 257 580 315 c 1
 529 353 464 365 402 362 c 1
 177 362 l 1
 177 645 l 1
 286 645 390 646 496 644 c 1
 544 639 587 605 605 560 c 0
 610 551 621 546 631 544 c 0
 646 542 663 548 666 566 c 0
 665 591 649 611 642 633 c 0
 629 659 620 688 605 714 c 0
 604 715 l 0
 588 726 568 718 553 720 c 0
 373 720 191 721 11 720 c 0
 -4 717 -13 704 -14 690 c 0
 -16 673 -8 653 14 651 c 0
 15 651 l 0
 37 655 52 634 49 612 c 0
 49 611 l 1
 49 391 50 170 49 -50 c 0
15 -141 m 0
 -2 -141 -10 -127 -9 -112 c 0
 -9 -99 -2 -88 12 -86 c 1
 34 -90 54 -72 55 -50 c 0
 56 170 55 391 55 611 c 1
 58 634 41 662 14 657 c 1
 -2 659 -10 674 -8 690 c 0
 -7 701 -1 711 11 714 c 1
 191 715 373 714 553 714 c 1
 550 714 549 715 552 714 c 0
 569 711 587 719 600 710 c 1
 613 686 623 657 636 630 c 1
 635 633 635 634 636 631 c 0
 644 608 659 590 660 566 c 1
 658 553 645 547 631 550 c 0
 622 552 615 556 610 563 c 1
 591 609 548 645 497 650 c 0
 496 650 l 1
 388 652 280 650 174 651 c 0
 171 651 l 1
 171 358 l 1
 402 357 l 1
 403 357 l 0
 464 360 527 347 577 310 c 1
 659 254 700 146 675 50 c 1
 651 -54 553 -136 447 -141 c 1
 303 -143 159 -141 15 -141 c 0
380 283 m 0
 463 275 537 204 541 119 c 1
 548 37 488 -42 409 -62 c 0
 363 -74 313 -67 265 -69 c 1
 177 -69 l 1
 177 284 l 1
 245 283 312 286 380 283 c 0
174 290 m 2
 171 290 l 1
 171 -75 l 1
 265 -75 l 1
 313 -73 363 -81 411 -68 c 0
 493 -46 554 35 547 120 c 1
 543 207 467 281 381 289 c 0
 312 292 243 289 174 290 c 2
84 583 m 0
 88 573 98 571 106 574 c 0
 116 578 125 589 118 602 c 0
 117 602 l 1
 104 620 75 603 84 583 c 0
89 585 m 0
 83 598 104 611 113 599 c 1
 113 599 114 583 105 580 c 0
 98 578 91 579 89 585 c 0
537 -31 m 0
 541 -41 552 -42 560 -39 c 0
 570 -35 578 -25 571 -12 c 0
 558 6 528 -11 537 -31 c 0
543 -28 m 2
 537 -15 557 -3 566 -15 c 1
 566 -15 567 -31 558 -34 c 0
 551 -36 545 -35 543 -29 c 0
 543 -28 l 2
EndSplineSet
Validated: 37
EndChar

StartChar: uni0412
Encoding: 1042 1042 14
Width: 1024
VWidth: 0
Flags: W
HStem: -214 5<-57.6337 -55 460 465.378> -131 7<141 385.561> -54 6<65.1572 80.4629> 288 7<377 390.369> 373 7<141 380.253> 709 7<370 376.205> 790 6<-59.3355 434.419>
VStem: -8 7<-116.439 654.999 666.123 694.013> 134 7<-124 288 380 709> 553 7<43.8859 119.5>
LayerCount: 2
Fore
SplineSet
396 790 m 0
 404 790 411 791 419 790 c 1
 519 783 611 707 637 610 c 1
 664 522 630 424 562 362 c 1
 535 347 571 336 578 330 c 0
 683 263 731 124 699 5 c 1
 673 -106 575 -198 460 -207 c 1
 363 -210 266 -208 169 -209 c 1
 94 -208 21 -211 -55 -208 c 1
 -84 -199 -84 -148 -51 -143 c 1
 -26 -147 -2 -127 -1 -102 c 0
 0 154 -1 411 -1 667 c 1
 -2 648 -4 647 -1 666 c 0
 3 692 -14 727 -47 722 c 1
 -79 724 -86 781 -53 790 c 1
 97 792 246 789 396 790 c 0
-8 -102 m 0
 -9 -124 -28 -141 -50 -137 c 0
 -51 -137 l 0
 -91 -141 -94 -204 -56 -214 c 0
 -55 -214 l 0
 20 -217 94 -214 169 -215 c 1
 266 -214 364 -217 461 -214 c 0
 579 -204 678 -109 705 4 c 1
 738 126 688 267 582 336 c 1
 568 348 548 346 566 356 c 0
 566 357 l 0
 636 419 672 521 644 612 c 1
 617 712 523 788 420 795 c 1
 412 796 404 797 396 797 c 0
 246 796 97 798 -53 796 c 0
 -54 796 l 1
 -94 786 -90 717 -47 716 c 0
 -46 716 l 0
 -20 721 -4 691 -8 667 c 0
 -8 411 -7 154 -8 -102 c 0
377 287 m 0
 473 277 550 188 553 93 c 1
 560 -3 492 -99 397 -119 c 1
 345 -128 291 -122 238 -124 c 1
 141 -124 l 1
 141 13 141 153 141 288 c 1
 220 287 298 290 377 287 c 0
378 294 m 2
 298 297 218 294 138 295 c 0
 134 295 l 1
 134 292 l 0
 134 152 134 13 134 -127 c 0
 134 -131 l 1
 238 -131 l 1
 291 -129 345 -136 398 -126 c 1
 497 -104 567 -6 560 93 c 1
 557 192 478 284 378 294 c 2
549 658 m 2
 549 657 l 0
 527 644 542 604 570 618 c 0
 571 618 l 0
 593 632 573 668 549 658 c 2
552 651 m 0
 569 657 581 633 567 624 c 1
 567 624 523 632 552 651 c 0
78 -85 m 0
 56 -90 47 -60 72 -54 c 0
 89 -54 94 -80 78 -85 c 0
72 -48 m 2
 71 -48 l 1
 37 -55 49 -99 79 -92 c 0
 103 -85 97 -47 72 -48 c 2
354 373 m 2
 366 373 377 374 388 378 c 1
 462 404 496 490 489 562 c 1
 485 629 443 702 371 714 c 0
 370 714 l 1
 293 717 215 715 138 716 c 0
 134 716 l 1
 134 373 l 1
 354 373 l 2
370 708 m 0
 437 697 478 626 482 561 c 1
 488 491 456 409 386 385 c 1
 376 382 365 380 354 380 c 2
 141 380 l 1
 141 709 l 1
 218 708 294 711 370 708 c 0
EndSplineSet
Validated: 37
EndChar

StartChar: uni0413
Encoding: 1043 1043 15
Width: 1024
VWidth: 0
Flags: W
HStem: -32 5<74.7766 284.104> 106 5<167.69 183.197> 713 6<240 553.816> 778 6<75.5471 589.983 597.861 641.434>
VStem: 119 5<51.0482 699.562> 158 5<85.9265 101.201> 234 6<47.2374 713> 699 6<632.432 653.572>
LayerCount: 2
Fore
SplineSet
118 58 m 0
 117 41 102 27 85 30 c 0
 84 30 l 1
 71 29 63 20 60 10 c 0
 55 -6 60 -26 78 -32 c 0
 79 -32 l 0
 115 -35 151 -32 187 -33 c 0
 218 -32 249 -35 280 -32 c 0
 281 -32 l 0
 293 -28 299 -17 300 -6 c 0
 302 10 294 28 275 30 c 0
 274 30 l 1
 254 26 239 43 240 63 c 2
 240 713 l 1
 342 713 440 714 541 713 c 1
 587 709 629 677 647 634 c 0
 647 633 l 1
 652 625 661 620 671 618 c 0
 685 616 702 621 705 638 c 0
 705 639 l 1
 704 662 689 681 682 701 c 0
 670 726 661 753 647 778 c 0
 646 779 l 1
 631 790 612 782 598 784 c 0
 426 784 255 785 83 784 c 0
 82 784 l 0
 67 781 60 768 59 755 c 0
 58 739 66 721 85 719 c 0
 86 719 l 0
 106 723 122 701 119 682 c 0
 119 681 l 0
 119 473 119 266 118 58 c 0
234 63 m 2
 233 41 250 21 275 25 c 1
 289 23 297 9 295 -6 c 0
 294 -15 289 -24 279 -27 c 1
 249 -30 218 -27 187 -28 c 1
 151 -27 116 -30 79 -27 c 1
 65 -22 60 -5 65 9 c 0
 68 17 74 24 84 25 c 1
 104 21 123 36 124 58 c 0
 125 266 124 473 124 681 c 1
 127 703 111 728 85 724 c 1
 70 726 61 741 63 756 c 0
 64 767 71 775 83 778 c 1
 254 779 427 779 598 779 c 1
 595 779 594 780 597 779 c 0
 613 777 630 783 642 775 c 1
 655 752 665 724 677 699 c 1
 676 702 675 702 676 699 c 0
 683 677 698 661 699 639 c 1
 695 619 664 619 652 636 c 1
 634 680 590 714 541 718 c 0
 440 719 338 719 237 719 c 0
 234 719 l 1
 234 63 l 2
175 111 m 0
 163 111 158 103 158 94 c 0
 159 84 168 72 181 75 c 1
 201 80 197 112 175 111 c 0
176 106 m 0
 190 107 193 83 179 80 c 1
 170 78 163 86 163 94 c 0
 163 100 167 106 176 106 c 0
158 664 m 0
 162 654 172 652 180 655 c 0
 189 659 197 669 190 681 c 0
 190 682 l 0
 178 698 150 683 158 664 c 0
163 666 m 0
 158 679 177 689 185 678 c 1
 185 678 186 665 178 662 c 0
 172 660 165 660 163 666 c 0
EndSplineSet
Validated: 37
EndChar

StartChar: uni0414
Encoding: 1044 1044 16
Width: 1024
VWidth: 0
Flags: W
HStem: -109 6<26 706> -42 6<84.6736 98.5195> -27 5<169.915 476.343> 622 6<565.707 581.079> 696 6<279 494> 777 6<164.216 678.733>
VStem: 20 6<-103 -32> 194 6<552.405 676.062> 273 6<415.5 696> 276 6<348.714 691.637> 494 6<-7.25977 696> 640 6<3.45834 6 673 684.79> 706 7<-103 -51.0347>
LayerCount: 2
Fore
SplineSet
194 617 m 0xff38
 200 492 206 365 176 243 c 0
 151 139 85 52 20 -32 c 0
 20 -33 l 1
 20 -109 l 1
 713 -109 l 1
 713 -106 l 0
 711 -87 718 -65 707 -45 c 0
 707 -44 l 0
 689 -21 655 -22 648 6 c 0
 646 13 646 20 646 27 c 0
 646 242 646 458 646 673 c 0
 647 692 663 707 682 708 c 0
 683 708 l 0
 716 719 713 771 681 781 c 0
 653 787 624 783 597 784 c 0
 596 784 l 1
 452 784 309 784 165 783 c 0
 164 783 l 0
 130 779 118 730 148 712 c 0
 150 712 l 1
 150 711 l 0
 165 704 181 704 187 689 c 1
 197 667 190 642 194 617 c 0xff38
640 28 m 0
 640 20 640 12 642 4 c 1
 650 -28 687 -29 702 -48 c 1
 692 -34 694 -33 702 -48 c 0
 711 -64 705 -83 706 -103 c 1
 26 -103 l 1
 26 -35 l 1
 89 47 156 137 182 242 c 0
 212 365 206 492 200 617 c 0
 196 640 204 667 193 691 c 1
 185 710 164 711 151 717 c 1
 166 709 167 708 152 717 c 0
 128 732 137 774 165 777 c 1
 148 776 148 777 165 777 c 0
 309 778 452 778 596 778 c 1
 579 778 579 779 596 778 c 0
 624 777 653 780 680 775 c 1
 663 779 663 780 679 775 c 0
 706 767 708 724 681 714 c 1
 659 712 641 696 640 673 c 0
 640 458 640 243 640 28 c 0
578 596 m 0
 560 592 551 618 573 622 c 0
 588 622 591 600 578 596 c 0
572 628 m 2
 542 622 553 584 579 590 c 0
 601 596 594 629 572 628 c 2
91 -36 m 2
 90 -36 l 0
 59 -44 70 -83 98 -75 c 0
 120 -69 113 -35 91 -36 c 2
91 -42 m 0
 106 -42 110 -66 96 -70 c 0
 76 -76 68 -49 91 -42 c 0
164 6 m 0
 182 41 204 74 220 111 c 1
 267 204 280 308 282 410 c 0xff78
 284 505 281 603 279 696 c 1xffb8
 494 696 l 1
 494 464 495 232 494 1 c 0
 492 -17 471 -25 453 -22 c 0
 361 -21 269 -24 178 -22 c 1
 164 -22 159 -6 164 6 c 0
500 702 m 1
 273 702 l 1
 273 699 l 0xffb8
 275 603 278 507 276 411 c 0
 274 309 261 205 215 113 c 1
 199 77 176 44 158 8 c 0
 151 -7 159 -27 178 -27 c 1
 269 -29 362 -27 453 -28 c 1
 472 -31 497 -23 500 1 c 0
 501 233 500 467 500 699 c 0
 500 702 l 1
EndSplineSet
Validated: 37
EndChar

StartChar: uni0415
Encoding: 1045 1045 17
Width: 1024
VWidth: 0
Flags: W
HStem: -144 5<50.6186 626.12> -73 5<215 498> 266 5<215 410.225> 343 6<215 410.256> 610 5<215 508.843> 676 5<53.2724 597.71>
VStem: 93 5<-61.8196 567.157> 210 5<-68 266 349 610> 431 5<214.427 245.294> 490 7<212.43 403.337> 659 5<528.945 548.012>
LayerCount: 2
Fore
SplineSet
654 35 m 0
 627 28 626 -4 612 -18 c 0
 611 -19 l 1
 585 -54 541 -72 498 -68 c 0
 215 -68 l 1
 215 266 l 1
 397 266 l 2
 419 267 435 245 431 225 c 0
 431 224 l 0
 431 196 468 180 487 202 c 0
 504 221 495 248 497 268 c 0
 496 310 498 353 496 396 c 0
 491 424 450 432 436 407 c 0
 424 389 436 368 420 357 c 0
 402 343 377 352 353 349 c 2
 215 349 l 1
 215 610 l 1
 310 610 406 611 501 609 c 0
 547 604 588 572 606 529 c 0
 618 509 660 505 664 534 c 0
 664 535 l 0
 663 559 648 578 641 598 c 0
 629 623 620 650 606 675 c 0
 606 676 l 1
 605 676 l 0
 590 687 571 679 557 681 c 0
 556 681 l 1
 390 681 223 682 57 681 c 0
 56 681 l 1
 23 675 25 618 59 615 c 0
 60 615 l 0
 80 619 96 598 93 578 c 0
 93 577 l 0
 93 367 94 158 93 -52 c 0
 92 -69 75 -84 58 -80 c 0
 26 -83 22 -133 52 -143 c 0
 88 -146 126 -144 162 -145 c 1
 316 -145 469 -145 622 -144 c 0
 623 -144 l 1
 641 -137 642 -113 649 -102 c 0
 662 -67 678 -33 690 3 c 1
 697 25 674 43 654 35 c 0
397 271 m 2
 210 271 l 1
 210 -73 l 1
 498 -73 l 1
 482 -72 481 -72 497 -73 c 0
 542 -77 589 -58 616 -22 c 1
 606 -34 605 -33 616 -22 c 0
 634 -4 633 24 656 30 c 0
 672 36 691 22 685 5 c 1
 673 -30 658 -63 644 -99 c 1
 636 -113 636 -133 622 -139 c 1
 470 -140 315 -139 162 -139 c 1
 125 -138 90 -141 53 -138 c 1
 30 -130 32 -90 58 -86 c 1
 80 -90 97 -74 98 -52 c 0
 99 158 98 367 98 577 c 1
 97 561 96 561 98 577 c 0
 101 599 85 625 59 621 c 1
 33 624 29 669 57 675 c 1
 223 676 390 676 556 676 c 1
 540 677 540 678 556 676 c 0
 573 673 589 680 601 672 c 1
 614 649 624 620 636 595 c 1
 630 610 631 611 636 596 c 0
 643 574 658 557 659 535 c 1
 655 513 622 514 611 531 c 1
 593 575 551 609 502 614 c 0
 501 614 l 0
 405 616 308 614 212 615 c 0
 210 615 l 1
 210 343 l 1
 353 343 l 1
 375 345 401 336 423 352 c 1
 442 365 432 391 441 404 c 0
 452 424 486 417 490 395 c 1
 488 411 489 412 490 396 c 0
 492 354 489 311 490 268 c 1
 491 284 492 285 490 269 c 0
 487 246 497 222 483 206 c 0
 468 189 436 202 436 224 c 1
 440 247 422 272 397 271 c 2
171 557 m 2
 165 584 126 573 135 550 c 1
 130 565 129 565 134 550 c 0
 140 530 172 537 171 557 c 2
165 556 m 0
 165 542 144 539 140 552 c 0
 134 567 160 575 165 556 c 0
170 -29 m 2
 165 -1 127 -12 134 -36 c 1
 140 -56 171 -49 170 -29 c 2
165 -30 m 0
 166 -44 143 -47 139 -34 c 1
 134 -17 161 -8 165 -30 c 0
EndSplineSet
Validated: 37
EndChar

StartChar: uni0416
Encoding: 1046 1046 18
Width: 1024
VWidth: 0
Flags: W
HStem: -171 4<30.9272 188.385 282.953 437.685 525.337 683> -122 4<413 424.326> 416 4<422.237 438.126> 457 4<275.795 399.59>
VStem: 216 4<237.772 252.734> 307 4<-109.275 -21.4888> 309 4<270.391 366.865> 398 5<44.4348 129 269.773 394.48> 530 5<-92.0988 -81>
LayerCount: 2
Fore
SplineSet
226 11 m 0xfb80
 246 51 266 91 286 130 c 1
 299 91 310 -59 307 -106 c 1xfd80
 299 -125 252 -118 263 -154 c 0
 263 -155 l 1
 281 -185 325 -166 351 -171 c 0
 352 -171 l 0
 380 -169 411 -175 439 -167 c 0
 440 -167 l 1
 465 -144 437 -118 413 -118 c 1
 391 -38 403 49 403 127 c 1
 427 157 438 98 453 76 c 1
 453 76 525 -70 530 -82 c 1
 530 -107 477 -160 530 -171 c 0
 581 -171 632 -171 683 -170 c 0
 721 -154 701 -110 669 -104 c 1
 644 -77 634 -39 615 -6 c 0
 575 76 534 159 494 241 c 1
 502 268 533 281 551 304 c 0
 573 326 593 346 615 366 c 1
 651 340 708 370 701 415 c 0
 697 458 637 479 609 445 c 0
 543 384 478 322 411 262 c 1
 391 276 409 324 402 352 c 1
 398 381 402 419 438 416 c 0
 439 416 l 1
 440 417 l 0
 472 448 424 471 397 462 c 1
 356 461 316 465 276 461 c 0
 275 461 l 1
 275 460 l 0
 244 440 273 408 299 409 c 1
 321 373 303 323 309 279 c 0
 308 238 274 291 255 303 c 1
 199 355 145 406 89 457 c 0
 88 457 l 0
 49 479 -4 436 13 393 c 0
 25 350 75 356 101 361 c 1
 140 324 178 288 216 251 c 1
 215 219 189 192 178 161 c 0
 136 76 95 -10 53 -94 c 1
 33 -111 -16 -134 22 -166 c 0
 22 -167 l 0
 49 -177 78 -168 106 -171 c 0
 108 -171 l 1
 136 -169 167 -175 195 -168 c 0
 196 -168 l 1
 196 -167 l 0
 222 -140 186 -111 181 -89 c 1
 185 -52 213 -24 226 11 c 0xfb80
399 129 m 2
 398 129 l 1
 398 128 l 0
 398 50 388 -39 410 -120 c 0
 410 -122 l 1
 412 -122 l 0
 435 -120 460 -144 438 -163 c 1
 412 -170 382 -165 352 -167 c 1
 323 -161 283 -179 267 -153 c 1
 257 -119 301 -136 311 -108 c 0xfd80
 314 -57 303 104 288 136 c 0
 286 140 l 1
 284 136 l 0
 262 95 244 53 222 12 c 0
 209 -22 181 -51 177 -89 c 0
 177 -90 l 0
 182 -117 217 -139 194 -164 c 1
 169 -170 135 -165 106 -167 c 1
 118 -167 120 -168 108 -167 c 0
 79 -164 49 -172 23 -163 c 1
 -9 -134 33 -115 56 -96 c 0
 57 -96 l 0
 99 -11 140 75 182 160 c 0
 192 190 220 218 220 251 c 0
 220 252 l 1
 220 253 l 0
 182 291 142 328 103 365 c 0
 102 366 l 1
 101 366 l 0
 74 361 28 355 17 394 c 0
 2 433 50 472 86 453 c 1
 142 403 198 351 253 300 c 0
 266 292 312 229 313 279 c 0xfb80
 308 321 327 373 302 412 c 0
 301 414 l 1
 300 413 l 0
 276 410 253 440 278 457 c 1
 317 460 358 457 398 458 c 0
 424 467 462 446 437 420 c 1
 397 422 394 380 398 351 c 0
 405 326 384 274 410 258 c 0
 411 257 l 1
 412 258 l 0
 479 319 546 380 612 442 c 0
 612 443 l 1
 613 443 l 0
 639 474 694 454 697 415 c 0
 697 414 l 1
 703 373 649 344 617 370 c 0
 615 371 l 1
 614 370 l 0
 592 348 570 329 548 307 c 0
 531 285 497 271 490 242 c 0
 490 241 l 1
 490 240 l 0
 530 157 570 74 611 -8 c 0
 630 -40 640 -78 666 -106 c 0
 666 -108 l 1
 667 -108 l 0
 697 -112 714 -152 682 -166 c 1
 632 -167 582 -167 531 -167 c 1
 483 -156 536 -114 535 -81 c 0
 534 -80 l 0
 511 -26 483 25 457 78 c 0
 446 93 428 166 399 129 c 2
341 368 m 0
 345 352 373 360 368 378 c 0
 368 379 l 1
 361 394 336 384 341 368 c 0
345 370 m 0
 342 381 359 386 364 377 c 1
 367 363 348 360 345 370 c 0
357 -91 m 0
 374 -89 369 -61 352 -63 c 0
 335 -66 340 -94 357 -91 c 0
352 -67 m 0
 364 -65 367 -86 356 -87 c 0
 344 -89 340 -69 352 -67 c 0
EndSplineSet
Validated: 37
EndChar

StartChar: uni0417
Encoding: 1047 1047 19
Width: 1024
VWidth: 0
Flags: W
HStem: 99 5<311.889 391.524>
VStem: 65 5<201.353 210.423>
LayerCount: 2
Fore
SplineSet
427 391 m 0
 474 362 527 332 547 279 c 0
 560 244 554 204 530 175 c 1
 488 122 416 104 351 104 c 0
 259 104 164 141 108 216 c 0
 95 232 65 224 65 202 c 0
 67 187 84 179 91 170 c 0
 92 170 l 0
 168 98 267 45 373 37 c 0
 461 30 555 54 618 119 c 0
 657 159 677 220 659 274 c 1
 640 335 590 380 539 412 c 1
 528 422 512 421 524 427 c 0
 525 427 l 0
 567 461 603 504 620 556 c 0
 637 610 625 671 589 714 c 1
 538 776 452 801 375 790 c 0
 286 778 207 726 145 663 c 1
 142 675 141 693 123 695 c 0
 108 697 82 695 76 676 c 0
 95 525 l 1
 96 525 l 0
 113 507 140 520 152 534 c 0
 187 609 246 679 328 702 c 1
 365 712 406 718 440 700 c 0
 441 700 l 0
 486 681 516 632 510 583 c 1
 503 520 459 468 412 427 c 1
 397 412 416 396 427 391 c 0
615 557 m 0
 599 506 564 465 522 431 c 1
 502 421 532 411 535 408 c 0
 536 408 l 1
 587 376 636 331 654 272 c 1
 672 220 653 161 615 122 c 0
 553 59 460 35 373 42 c 0
 268 50 171 102 95 173 c 1
 105 162 104 161 95 173 c 0
 86 184 72 190 70 202 c 1
 71 188 70 187 70 202 c 0
 70 219 93 226 104 213 c 1
 95 224 95 225 104 213 c 0
 161 137 258 99 351 99 c 0
 417 99 491 118 534 172 c 1
 559 202 565 244 552 280 c 0
 530 335 477 367 430 395 c 0
 418 400 405 414 415 424 c 1
 462 465 508 516 515 582 c 1
 522 634 489 685 442 705 c 1
 455 699 456 698 443 705 c 0
 407 724 364 717 327 707 c 1
 243 683 183 614 148 537 c 1
 136 524 114 514 100 528 c 1
 81 675 l 1
 86 689 106 692 122 690 c 0
 137 689 137 671 142 657 c 0
 143 653 l 1
 146 656 l 0
 208 719 286 772 375 784 c 0
 451 795 535 772 585 711 c 1
 620 669 632 609 615 557 c 0
597 150 m 0
 616 157 603 190 581 178 c 0
 581 177 l 0
 566 166 580 143 597 150 c 0
584 173 m 0
 598 181 606 158 595 154 c 0
 584 149 574 166 584 173 c 0
519 705 m 0
 503 694 524 664 541 680 c 0
 541 681 l 1
 542 681 l 0
 554 695 534 716 519 705 c 0
538 684 m 0
 526 673 512 693 522 700 c 0
 532 707 546 693 538 684 c 0
EndSplineSet
Validated: 37
EndChar

StartChar: uni0418
Encoding: 1048 1048 20
Width: 1024
VWidth: 0
Flags: W
HStem: -126 4<106.007 177.874 180.782 295.168 456.011 554.499 557.407 648.075> -21 20G<185.5 191> 637 4<104.71 106 295 296.989 456.832 647>
VStem: 144 6<-50.9932 566.173> 252 6<-47.3892 -8 139 565.27> 495 5<-50.2697 -41> 604 5<-50.2697 564.866>
LayerCount: 2
Fore
SplineSet
609 -41 m 0
 608 157 609 356 609 554 c 1
 609 570 624 585 640 582 c 0
 670 584 675 630 648 640 c 0
 623 644 598 641 574 642 c 0
 573 642 l 0
 535 641 497 643 459 641 c 0
 458 641 l 0
 430 633 432 587 461 582 c 0
 462 582 l 0
 476 584 490 577 493 563 c 0
 496 550 495 535 494 523 c 1
 258 139 l 1
 258 279 257 417 258 556 c 0
 259 572 274 585 290 582 c 0
 320 585 324 632 296 641 c 0
 295 641 l 0
 262 644 229 641 197 642 c 0
 167 641 136 644 106 641 c 0
 78 632 81 585 111 582 c 0
 112 582 l 0
 128 585 143 572 144 556 c 0
 145 358 144 159 144 -39 c 1
 144 -55 129 -70 113 -67 c 0
 112 -67 l 0
 82 -69 77 -115 104 -125 c 0
 105 -125 l 1
 130 -129 155 -126 179 -127 c 0
 217 -126 256 -128 294 -126 c 0
 322 -118 321 -72 292 -67 c 0
 291 -67 l 1
 277 -69 263 -62 260 -48 c 0
 257 -35 257 -20 258 -8 c 1
 495 376 l 1
 495 236 496 98 495 -41 c 0
 494 -57 479 -70 463 -67 c 0
 462 -67 l 0
 432 -70 429 -117 457 -126 c 0
 458 -126 l 0
 491 -129 524 -126 556 -127 c 0
 586 -126 617 -129 647 -126 c 0
 675 -117 672 -70 642 -67 c 0
 641 -67 l 1
 625 -70 610 -57 609 -41 c 0
252 130 m 2
 252 121 l 1
 499 521 l 1
 499 522 l 0
 501 535 501 550 498 564 c 0
 494 581 478 589 461 587 c 1
 439 591 435 629 459 636 c 1
 496 638 536 636 574 637 c 1
 559 637 558 638 573 637 c 0
 598 636 622 639 647 635 c 1
 669 627 665 589 640 587 c 1
 620 590 604 573 604 554 c 1
 604 356 603 157 604 -41 c 0
 605 -60 622 -75 642 -72 c 1
 664 -75 669 -113 646 -121 c 1
 617 -124 586 -121 556 -122 c 1
 523 -121 491 -124 458 -121 c 1
 436 -114 439 -75 463 -72 c 1
 482 -75 499 -60 500 -41 c 0
 501 101 500 243 500 385 c 0
 500 394 l 1
 253 -6 l 1
 253 -7 l 0
 251 -20 252 -35 255 -49 c 0
 259 -66 274 -74 291 -72 c 1
 313 -76 317 -114 293 -121 c 1
 256 -123 217 -121 179 -122 c 1
 194 -122 194 -123 179 -122 c 0
 154 -121 131 -124 106 -120 c 1
 84 -112 87 -74 112 -72 c 1
 132 -75 150 -58 150 -39 c 1
 150 159 151 358 150 556 c 0
 149 575 131 590 111 587 c 1
 89 590 83 628 106 636 c 1
 135 639 167 636 197 637 c 1
 230 636 262 639 295 636 c 1
 317 629 314 590 290 587 c 1
 271 590 254 575 253 556 c 0
 252 414 252 272 252 130 c 2
204 -28 m 0
 224 -22 211 12 189 3 c 0
 172 -7 186 -35 204 -28 c 0
202 -23 m 0
 190 -28 180 -8 191 -1 c 1
 191 -1 226 -15 202 -23 c 0
537 535 m 2
 542 509 577 519 571 541 c 1
 565 559 536 554 537 535 c 2
542 536 m 0
 542 549 562 552 566 540 c 1
 570 525 546 517 542 536 c 0
EndSplineSet
Validated: 37
EndChar

StartChar: uni041B
Encoding: 1051 1051 21
Width: 1024
VWidth: 0
Flags: W
HStem: -102 5<487.372 681.263> -2 21G<199 219.5> 589 6<315 527> 614 6<212.514 238.016> 671 5<212.73 680.665>
VStem: 251 5<76.1757 569.547> 310 5<48.2301 589> 527 7<-22.9181 589> 637 5<412.849 597.27>
LayerCount: 2
Fore
SplineSet
642 588 m 5
 643 604 658 617 674 614 c 0
 675 614 l 0
 707 619 706 674 673 677 c 0
 521 677 370 677 218 676 c 0
 217 676 l 1
 185 670 188 615 221 614 c 0
 222 614 l 1
 242 618 255 596 252 577 c 0
 252 418 252 259 251 101 c 0
 249 61 239 15 200 -2 c 0
 199 -2 l 0
 187 -11 196 5 188 17 c 1
 170 63 108 82 68 54 c 0
 26 29 18 -35 52 -70 c 0
 80 -99 125 -104 162 -101 c 1
 243 -92 307 -20 314 59 c 0
 317 126 314 192 315 259 c 1
 315 589 l 1
 527 589 l 1
 527 388 528 186 527 -15 c 0
 526 -31 511 -44 495 -41 c 0
 494 -41 l 0
 463 -44 461 -93 490 -101 c 0
 550 -103 612 -101 672 -102 c 1
 703 -102 709 -54 681 -43 c 0
 668 -40 654 -43 648 -31 c 0
 636 -11 644 564 642 588 c 5
534 592 m 2
 534 595 l 1
 310 595 l 1
 310 259 l 1
 309 192 312 125 309 59 c 1
 302 -18 239 -87 161 -95 c 1
 124 -98 82 -94 56 -67 c 0
 24 -34 32 26 71 49 c 0
 71 50 l 0
 109 76 167 58 183 15 c 0
 183 14 l 1
 186 10 185 -19 202 -7 c 1
 244 11 254 61 256 101 c 0
 257 260 257 418 257 577 c 1
 256 562 255 560 257 575 c 0
 260 595 247 624 221 620 c 1
 196 621 192 665 218 671 c 1
 369 672 521 671 673 671 c 1
 699 669 701 624 675 620 c 1
 656 623 638 608 637 588 c 0
 636 405 637 221 637 38 c 0
 637 37 l 0
 639 15 631 -12 644 -34 c 1
 652 -49 669 -45 680 -48 c 1
 666 -44 666 -43 680 -48 c 0
 703 -57 697 -97 672 -97 c 1
 612 -96 551 -98 490 -96 c 1
 468 -89 469 -50 494 -46 c 1
 513 -49 531 -35 532 -15 c 0
 533 187 534 390 534 592 c 2
110 22 m 0
 125 32 134 6 122 0 c 0
 110 -5 99 14 110 22 c 0
125 -5 m 2
 144 5 128 39 106 25 c 0
 90 13 107 -13 125 -5 c 2
572 563 m 0
 571 576 592 581 596 568 c 1
 602 551 575 543 572 563 c 0
567 563 m 2
 571 536 609 544 601 569 c 1
 595 587 566 582 567 563 c 2
EndSplineSet
Validated: 37
EndChar

StartChar: uni041D
Encoding: 1053 1053 22
Width: 1024
VWidth: 0
Flags: W
HStem: 20 43<51.4793 115.316 218.741 272.126 426.545 487.867 592.708 647.126> 352 46<216 492> 684 47<59.8484 116.646 216.946 279.485 434.576 489.646 590.098 654.828>
VStem: 119 97<66.7778 352 398 683.608> 490 35<103.242 132.999> 492 97<66.6184 352 398 683.222>
LayerCount: 2
Fore
SplineSet
487 607 m 1
 487 403 l 1
 221 403 l 1
 221 488 220 573 221 657 c 0
 222 672 237 683 252 680 c 0
 252 680 l 1
 252 680 l 0
 276 676 295 706 279 725 c 1
 265 743 239 734 222 736 c 0
 222 736 l 1
 222 736 l 0
 200 736 182 736 160 736 c 4
 130 736 99 736 69 735 c 0
 68 735 l 1
 68 735 l 0
 44 730 39 694 62 683 c 0
 79 674 99 686 108 670 c 1
 119 652 112 629 114 607 c 0
 114 436 114 266 113 95 c 1
 112 79 98 66 83 70 c 0
 61 75 40 54 49 32 c 0
 56 12 79 13 94 14 c 0
 150 15 207 13 263 15 c 0
 263 15 l 1
 263 15 l 0
 287 20 291 56 269 67 c 1
 253 76 236 65 227 80 c 1
 216 98 223 121 221 143 c 2
 221 347 l 1
 487 347 l 1
 487 262 487 177 486 93 c 1025xf0
486 93 m 1
 485 78 471 67 456 70 c 1
 433 75 413 47 426 27 c 1
 439 5 467 16 484 14 c 0
 484 14 l 1
 484 14 l 0
 535 15 587 13 638 15 c 0
 638 15 l 1
 638 15 l 0
 662 20 667 56 644 67 c 0
 627 76 609 64 600 80 c 1
 589 98 596 121 594 143 c 0
 594 314 593 484 594 655 c 0
 595 671 609 684 625 680 c 1
 648 675 668 701 656 721 c 1
 644 743 616 735 599 736 c 0
 599 736 l 1
 599 736 l 0
 547 735 496 737 444 735 c 0
 443 735 l 1
 443 735 l 0
 418 730 414 692 438 682 c 1
 454 674 472 685 481 670 c 1
 492 652 485 628 487 606 c 1025
216 401 m 2
 216 398 l 1
 492 398 l 1
 492 607 l 1
 490 627 497 653 485 673 c 1
 475 691 452 682 440 687 c 1
 421 695 424 726 444 730 c 1
 495 732 547 730 599 731 c 1
 619 729 642 737 652 719 c 1
 662 702 645 680 626 684 c 1
 607 688 590 673 589 655 c 0
 588 484 589 314 589 143 c 0xf4
 591 123 584 97 596 77 c 1
 607 58 630 69 642 63 c 0
 660 54 656 24 637 20 c 1
 587 18 535 20 484 19 c 1
 464 21 441 12 430 30 c 1
 419 46 436 70 455 66 c 1
 473 62 488 75 490 93 c 0xf8
 491 178 492 264 492 349 c 0
 492 352 l 1xf4
 216 352 l 1
 216 143 l 1
 218 123 210 97 222 77 c 1
 232 59 255 69 267 63 c 1
 285 54 281 24 262 20 c 1
 207 18 150 20 94 19 c 0
 78 18 58 18 53 34 c 0
 46 51 64 70 82 66 c 0
 101 62 117 77 118 95 c 1
 118 171 119 248 119 324 c 0
 119 418 119 513 119 607 c 0
 117 627 124 653 112 673 c 1
 101 692 75 680 63 687 c 0
 45 696 50 726 69 730 c 1
 98 731 127 731 157 731 c 0
 176 731 195 731 214 731 c 0
 215 731 l 0
 216 731 l 0
 218 731 220 731 222 731 c 1
 219 731 218 731 216 731 c 0
 215 732 l 0
 214 732 l 0
 213 732 212 732 212 732 c 0
 212 732 212 732 213 732 c 0
 215 732 218 731 222 731 c 0
 242 729 263 738 275 722 c 1
 288 707 272 681 253 684 c 1
 235 688 218 675 216 657 c 0
 215 572 216 486 216 401 c 2
176 630 m 2
 172 654 138 644 144 624 c 1
 149 607 177 612 176 630 c 2
171 630 m 0
 172 618 154 614 150 626 c 1
 146 639 167 647 171 630 c 0
525 118 m 0xf8
 525 93 566 100 557 124 c 1
 561 111 561 110 557 123 c 0
 552 140 524 136 525 118 c 0xf8
530 118 m 0
 529 130 549 134 552 122 c 0
 558 105 530 100 530 118 c 0
EndSplineSet
Validated: 43
EndChar

StartChar: uni041E
Encoding: 1054 1054 23
Width: 1024
VWidth: 0
Flags: W
HStem: 481 4<340.754 394.352> 522 4<317.393 420.154>
VStem: 60 3<195 248.48>
LayerCount: 2
Fore
SplineSet
65 195 m 2
 63 218 l 1
 63 249 67 280 77 309 c 1
 93 365 126 415 170 452 c 1
 201 477 235 499 273 510 c 1
 317 525 365 528 411 522 c 1
 439 517 468 509 494 497 c 1
 540 477 578 445 609 406 c 1
 634 373 653 335 662 295 c 1
 678 235 672 170 649 112 c 1
 640 89 628 68 614 46 c 1
 621 56 621 55 614 46 c 0
 592 19 568 -8 539 -27 c 0
 538 -27 l 1
 520 -40 502 -50 480 -58 c 1
 424 -80 362 -86 303 -72 c 1
 280 -68 259 -61 237 -51 c 1
 174 -21 120 33 91 98 c 1
 77 129 67 161 65 195 c 2
541 -30 m 0
 571 -10 595 16 617 44 c 0
 631 66 643 87 653 110 c 1
 676 169 681 235 665 296 c 1
 655 337 637 375 612 408 c 1
 581 447 542 481 496 501 c 1
 470 513 441 521 412 526 c 1
 365 532 317 528 272 513 c 1
 233 501 198 480 167 455 c 1
 123 417 89 366 73 310 c 1
 63 280 60 249 60 218 c 0
 61 195 l 2
 63 161 73 127 87 96 c 1
 116 30 169 -23 234 -54 c 1
 256 -64 279 -72 302 -76 c 1
 361 -90 424 -84 481 -62 c 1
 503 -54 523 -44 541 -30 c 0
119 225 m 0
 116 243 87 237 92 219 c 1
 90 231 90 232 92 220 c 0
 95 202 124 208 119 225 c 0
115 224 m 1
 118 212 98 208 96 220 c 0
 93 232 113 237 115 225 c 0
 115 224 l 1
157 146 m 0
 168 100 190 58 222 24 c 1
 251 -6 289 -29 331 -37 c 0
 359 -43 388 -41 416 -34 c 1
 451 -24 484 -4 509 22 c 1
 536 49 556 81 569 117 c 0
 592 180 593 251 574 314 c 1
 566 340 554 364 539 387 c 1
 515 422 482 452 443 469 c 1
 417 481 388 486 360 485 c 0
 337 484 314 480 292 470 c 1
 266 459 245 440 223 421 c 0
 193 388 170 349 159 306 c 1
 144 254 143 198 157 146 c 0
226 418 m 0
 246 437 268 455 294 466 c 1
 316 475 338 480 361 481 c 0
 389 482 416 477 441 465 c 0
 479 449 512 420 535 385 c 1
 550 363 562 338 570 313 c 1
 589 250 588 181 565 119 c 0
 552 84 532 50 506 24 c 1
 481 -2 449 -20 415 -30 c 1
 388 -37 359 -38 332 -33 c 0
 291 -25 254 -2 225 27 c 1
 193 60 171 102 161 147 c 0
 147 198 148 253 163 304 c 1
 174 347 196 386 226 418 c 0
617 216 m 2
 629 203 648 214 640 231 c 0
 640 232 l 1
 639 232 l 0
 628 243 608 230 617 216 c 2
620 218 m 0
 615 228 629 235 636 229 c 1
 642 215 629 209 620 218 c 0
EndSplineSet
Validated: 37
EndChar

StartChar: uni0420
Encoding: 1056 1056 24
Width: 1024
VWidth: 0
Flags: W
HStem: 17 5<107.248 303.75> 407 5<264 492.927> 473 5<264 431.68> 733 6<264 447.595> 739 5<109.541 134.1> 796 5<107.871 492.699>
VStem: 148 6<92.8605 691.672> 259 5<96.4688 407 478 733>
LayerCount: 2
Fore
SplineSet
321 36 m 0xef
 329 58 311 82 288 78 c 1
 273 79 264 95 264 109 c 0
 264 208 264 309 264 407 c 1
 337 408 408 406 481 408 c 1
 568 414 654 472 676 559 c 1
 696 631 663 711 604 754 c 1
 556 791 493 805 434 802 c 0
 328 802 219 802 113 801 c 0
 112 801 l 0
 81 793 85 740 118 739 c 0
 119 739 l 0
 139 743 153 720 150 701 c 0
 150 502 149 303 148 104 c 0
 147 87 132 74 116 77 c 0
 115 77 l 0
 84 74 82 25 111 17 c 0
 112 17 l 0
 168 15 223 17 279 16 c 0
 294 14 316 17 321 36 c 0xef
259 109 m 0
 259 93 269 72 288 72 c 0
 289 72 l 0
 307 76 323 55 316 38 c 0
 312 23 295 20 280 22 c 0
 279 22 l 0
 223 23 169 20 112 22 c 1
 90 29 90 68 115 72 c 1
 134 69 153 84 154 104 c 0
 155 303 154 502 154 701 c 1
 153 686 152 686 154 701 c 0
 157 721 144 748 118 744 c 1
 93 745 87 789 113 796 c 1
 219 797 329 796 435 796 c 0
 494 799 554 787 601 750 c 1
 659 708 689 631 670 561 c 1
 648 477 566 419 481 413 c 1
 408 411 334 413 261 412 c 0
 259 412 l 1
 259 410 l 0
 259 310 259 209 259 109 c 0
208 106 m 0
 228 112 215 148 193 139 c 0
 176 129 189 99 208 106 c 0
206 112 m 0
 193 107 184 127 195 134 c 1
 212 140 218 116 206 112 c 0
439 733 m 0xf7
 491 726 523 673 528 623 c 1
 534 568 511 506 459 484 c 1
 394 473 331 478 264 478 c 1
 264 733 l 1
 323 733 381 735 439 733 c 0xf7
259 739 m 1xef
 259 473 l 1
 262 473 l 0
 331 473 394 468 460 479 c 0
 461 479 l 0
 517 502 541 568 534 624 c 1
 529 675 495 730 440 738 c 0
 381 740 321 739 262 739 c 0
 259 739 l 1xef
575 695 m 0
 555 689 569 654 591 663 c 0
 608 673 594 702 575 695 c 0
578 690 m 0
 591 695 600 675 589 668 c 1
 572 662 566 686 578 690 c 0
EndSplineSet
Validated: 37
EndChar

StartChar: uni041F
Encoding: 1055 1055 25
Width: 1024
VWidth: 0
Flags: W
HStem: -82 5<94.2841 302.008 433.287 641.008> 647 5<258 477> 727 5<94.2668 102 638 641.334>
VStem: 137 6<-2.66246 180.44> 253 5<0.414337 647> 477 6<-1.69223 647> 517 5<606.853 622.523> 593 5<8.18555 651.871> 595 6<-8.15615 633.014>
LayerCount: 2
Fore
SplineSet
137 8 m 0xff
 136 -9 120 -23 103 -20 c 0
 102 -20 l 0
 70 -23 67 -73 97 -82 c 0
 98 -82 l 0
 166 -82 234 -86 297 -82 c 0
 298 -82 l 0
 328 -74 326 -25 295 -20 c 0
 294 -20 l 1
 280 -22 265 -15 261 -1 c 0
 259 4 258 9 258 14 c 2
 258 647 l 1
 477 647 l 1
 477 434 478 221 477 8 c 0
 476 -9 460 -23 443 -20 c 0
 442 -20 l 1
 410 -23 406 -73 436 -82 c 0
 437 -82 l 1
 505 -82 574 -86 637 -82 c 0
 667 -74 665 -25 634 -20 c 0
 619 -22 605 -15 601 -2 c 1xfe80
 594 215 597 451 598 642 c 0
 599 659 614 673 631 670 c 0
 663 672 669 721 640 732 c 0
 639 732 l 0
 459 736 260 735 101 734 c 0
 70 729 68 679 98 671 c 0
 99 671 l 0
 113 670 126 669 132 658 c 1
 147 441 138 201 137 8 c 0xff
253 14 m 2
 253 8 254 2 256 -3 c 1
 251 12 252 12 256 -3 c 0
 261 -20 277 -27 294 -25 c 1
 317 -29 322 -70 297 -77 c 1
 235 -81 167 -78 98 -77 c 1
 76 -69 77 -29 103 -25 c 1
 123 -29 142 -14 143 8 c 0
 144 201 152 442 137 659 c 0
 137 660 l 0
 130 676 113 676 99 677 c 1
 76 684 76 723 102 728 c 1
 261 729 457 731 638 727 c 1
 660 718 658 678 632 676 c 1
 612 679 594 663 593 643 c 0xff
 592 452 588 214 595 -2 c 0
 595 -3 l 0
 600 -20 617 -27 634 -25 c 1
 657 -29 661 -69 636 -77 c 1
 574 -81 507 -78 438 -77 c 1
 416 -69 416 -29 442 -25 c 1
 462 -28 481 -14 482 8 c 0
 483 222 483 435 483 649 c 0
 483 652 l 1
 253 652 l 1
 253 14 l 2
517 615 m 0
 517 586 558 596 553 621 c 0
 547 640 516 635 517 615 c 0
547 620 m 0
 551 603 522 593 522 615 c 0
 521 629 543 633 547 620 c 0
182 37 m 2
 190 9 226 18 218 44 c 0
 212 63 181 57 182 37 c 2
188 38 m 0
 188 52 209 55 213 42 c 0
 219 23 194 16 188 38 c 0
EndSplineSet
Validated: 37
EndChar
